<svg width="1440" height="692" viewBox="0 0 1440 692" fill="none" xmlns="http://www.w3.org/2000/svg">
<g clip-path="url(#clip0_195_7866)">
<path d="M1144.73 174.474V177.406C1147.66 177.406 1150.4 175.256 1150.2 174.084V171.152C1150.4 172.325 1147.66 173.693 1144.73 174.474Z" fill="url(#paint0_linear_195_7866)"/>
<path d="M297.623 295.825V299.343C301.14 299.343 304.853 297.975 304.658 296.607V292.894C304.853 294.653 301.14 294.653 297.623 295.825Z" fill="url(#paint1_linear_195_7866)"/>
<path d="M728.506 136.566V140.279C732.023 140.279 735.736 138.911 735.541 137.543V133.83C735.541 135.198 732.023 136.37 728.506 136.566Z" fill="url(#paint2_linear_195_7866)"/>
<path d="M1065.98 94.7476H1061.49C1061.49 99.0466 1061.49 103.541 1063.64 103.541H1068.13C1066.38 103.541 1065.79 99.2421 1065.98 94.7476Z" fill="url(#paint3_linear_195_7866)"/>
<path d="M992.301 82.4374V75.9888C986.244 75.9888 979.795 77.1612 979.795 79.7016V86.1503C979.99 83.6099 986.244 82.242 992.301 82.4374Z" fill="url(#paint4_linear_195_7866)"/>
<path d="M963.975 116.245L960.653 122.108C966.32 125.234 972.769 127.188 974.137 125.039L977.068 118.785C977.068 121.521 969.447 118.785 963.975 116.245Z" fill="url(#paint5_linear_195_7866)"/>
<path d="M450.433 65.4335V63.6748C448.87 63.6748 447.307 65.0427 447.502 65.6289V67.3877C447.502 67.3877 449.456 65.8244 450.433 65.4335Z" fill="url(#paint6_linear_195_7866)"/>
<path d="M1034.51 245.606H1031.97C1031.97 247.951 1031.97 250.296 1033.92 250.1H1035.68C1035.68 250.1 1035.68 247.951 1034.51 245.606Z" fill="url(#paint7_linear_195_7866)"/>
<path d="M409.204 132.268V136.958C413.699 136.958 418.389 136.958 418.584 135.004V130.314C418.389 132.073 413.699 132.659 409.204 132.268Z" fill="url(#paint8_linear_195_7866)"/>
<path d="M877.203 144.579L878.962 147.51C881.698 145.947 884.238 143.602 883.456 142.43L881.893 139.499C882.479 140.671 879.353 143.016 877.203 144.579Z" fill="url(#paint9_linear_195_7866)"/>
<path d="M418.765 196.946L424.432 212.97C439.869 207.499 454.721 198.119 452.376 191.866L446.513 175.842C449.445 182.486 434.007 191.67 418.765 196.946Z" fill="url(#paint10_linear_195_7866)"/>
<path d="M53.156 86.1504L42.2129 99.2431C54.7193 109.795 69.9616 118.784 74.2607 112.727L85.2038 99.2431C80.9047 104.91 65.4671 96.7027 53.156 86.1504Z" fill="url(#paint11_linear_195_7866)"/>
<path d="M1125.38 82.4371L1137.89 70.9077C1126.75 58.9875 1112.68 48.8261 1107.6 53.3206L1094.31 64.8499C1100.18 60.16 1113.85 70.5169 1125.38 82.4371Z" fill="url(#paint12_linear_195_7866)"/>
<path d="M707.797 94.3584L696.072 82.0474C684.347 93.1859 674.576 107.646 679.071 112.532L690.796 124.843C686.301 119.958 696.072 105.497 707.797 94.3584Z" fill="url(#paint13_linear_195_7866)"/>
<path d="M1048 200.269L1045.46 207.108C1051.91 209.453 1059.33 210.625 1060.31 207.108L1062.85 200.269C1061.87 203.786 1055.23 202.614 1048 200.269Z" fill="url(#paint14_linear_195_7866)"/>
<path d="M338.252 259.088L340.597 260.26C341.769 257.915 342.356 255.375 340.597 254.984L338.252 253.812C338.252 253.812 339.424 256.938 338.252 259.088Z" fill="url(#paint15_linear_195_7866)"/>
<path d="M130.148 101.588L132.493 102.761C132.493 100.416 134.057 97.8753 132.493 97.4845L130.93 96.312C130.93 96.312 131.126 99.2432 130.148 101.588Z" fill="url(#paint16_linear_195_7866)"/>
<path d="M246.022 95.5268L248.172 102.757C255.207 100.803 262.046 97.0901 261.069 94.3543L259.115 87.124C259.897 89.8598 254.034 93.5727 246.022 95.5268Z" fill="url(#paint17_linear_195_7866)"/>
<path d="M1007.56 273.943L1001.11 272.38C999.742 278.438 999.547 285.082 1002.09 285.668L1008.34 287.231C1005.8 286.645 1006 280.001 1007.56 273.943Z" fill="url(#paint18_linear_195_7866)"/>
<path d="M873.895 287.813L866.86 296.021C874.677 302.665 884.252 307.941 886.402 304.814L893.437 296.803C891.287 299.929 881.516 294.653 873.895 287.813Z" fill="url(#paint19_linear_195_7866)"/>
<path d="M343.138 447.078L339.034 450.596C342.552 454.504 347.046 457.826 348.609 456.458L352.713 452.941C351.736 454.308 346.655 450.986 343.138 447.078Z" fill="url(#paint20_linear_195_7866)"/>
<path d="M42.7959 47.6548L39.083 51.1722C42.6004 55.0805 46.8995 58.4025 48.4628 57.0346L52.5665 53.3218C50.6124 54.6897 46.1179 51.3676 42.7959 47.6548Z" fill="url(#paint21_linear_195_7866)"/>
<path d="M368.746 465.444V463.49C366.792 463.49 364.838 465.444 365.229 466.226V468.376C365.229 468.376 366.792 466.226 368.746 465.444Z" fill="url(#paint22_linear_195_7866)"/>
<path d="M1057.97 297.977L1060.51 291.138C1054.06 288.598 1046.64 287.425 1045.66 290.161L1042.92 296.805C1043.9 294.655 1051.33 294.655 1057.97 297.977Z" fill="url(#paint23_linear_195_7866)"/>
<path d="M1286.98 166.465L1289.72 159.625C1283.08 157.085 1275.65 155.912 1274.67 158.648L1272.13 165.488C1273.11 162.752 1280.53 163.924 1286.98 166.465Z" fill="url(#paint24_linear_195_7866)"/>
<path d="M683.955 228.214L686.495 221.374C680.047 218.834 672.621 217.661 671.644 220.397L668.908 227.041C670.276 224.501 677.702 225.673 683.955 228.214Z" fill="url(#paint25_linear_195_7866)"/>
<path d="M193.266 81.6532L195.415 74.8138C188.771 72.2734 181.345 71.1009 180.368 73.6413L178.219 79.6991C179.391 77.9404 186.817 79.6991 193.266 81.6532Z" fill="url(#paint26_linear_195_7866)"/>
<path d="M1106.43 264.56H1109.56C1109.56 261.628 1107.41 258.697 1106.24 258.893H1103.11C1104.28 258.697 1105.65 261.628 1106.43 264.56Z" fill="url(#paint27_linear_195_7866)"/>
<path d="M1143.17 296.023L1141.8 294.655C1141.8 296.023 1140.24 297.586 1141.8 297.977H1143.17C1143.17 297.977 1142.19 297.391 1143.17 296.023Z" fill="url(#paint28_linear_195_7866)"/>
<path d="M1126.57 28.3052V33.7768C1132.04 33.7768 1137.7 32.2135 1137.51 29.8685V24.397C1137.51 26.5465 1132.04 27.9144 1126.57 28.3052Z" fill="url(#paint29_linear_195_7866)"/>
<path d="M1382.36 227.63V229.779C1384.31 229.779 1386.66 229.779 1386.85 229.779V227.63C1386.85 227.63 1384.31 228.216 1382.36 227.63Z" fill="url(#paint30_linear_195_7866)"/>
<path d="M1302.82 275.111V273.157C1300.87 273.157 1298.92 274.721 1299.11 275.502V277.456C1299.11 277.456 1300.87 275.111 1302.82 275.111Z" fill="url(#paint31_linear_195_7866)"/>
<path d="M1224.26 462.906L1216.25 461.734C1215.08 469.55 1216.25 477.953 1218.99 478.344L1227 479.516C1223.87 479.126 1223.28 470.528 1224.26 462.906Z" fill="url(#paint32_linear_195_7866)"/>
<path d="M1364.57 118.783H1356.56C1356.56 126.6 1356.56 135.003 1359.29 135.393L1367.5 136.566C1364.18 135.198 1363.59 126.795 1364.57 118.783Z" fill="url(#paint33_linear_195_7866)"/>
<path d="M1280.34 327.875H1278.58C1278.58 329.438 1278.58 331.197 1278.58 331.392H1280.34C1280.34 331.392 1280.15 329.438 1280.34 327.875Z" fill="url(#paint34_linear_195_7866)"/>
<path d="M1295.01 612.399L1297.75 609.077C1294.62 606.341 1290.91 604.387 1289.73 605.56L1287 608.882C1288.17 607.318 1291.88 609.663 1295.01 612.399Z" fill="url(#paint35_linear_195_7866)"/>
<path d="M1330.18 340.577L1332.92 337.255C1329.79 334.714 1326.08 332.565 1324.9 333.737L1322.17 337.059C1323.15 335.887 1327.05 337.841 1330.18 340.577Z" fill="url(#paint36_linear_195_7866)"/>
<path d="M1260.81 488.503V484.009C1256.52 484.009 1252.02 485.768 1252.22 487.526V492.216C1252.02 490.067 1256.52 488.894 1260.81 488.503Z" fill="url(#paint37_linear_195_7866)"/>
<path d="M1300.47 113.507V109.012C1295.97 109.012 1291.68 110.771 1291.87 112.53V117.024C1291.68 115.265 1296.17 113.898 1300.47 113.507Z" fill="url(#paint38_linear_195_7866)"/>
<path d="M1303.02 552.795L1307.71 549.473C1304.39 544.978 1300.09 541.07 1298.33 542.243L1293.45 545.565C1295.4 544.392 1299.7 548.691 1303.02 552.795Z" fill="url(#paint39_linear_195_7866)"/>
<path d="M1258.07 401.156V399.007C1255.92 399.007 1253.97 401.156 1254.36 401.938V404.088C1254.36 404.088 1256.12 401.938 1258.07 401.156Z" fill="url(#paint40_linear_195_7866)"/>
<path d="M1195.15 531.302L1201.6 530.325C1200.63 524.072 1198.28 517.819 1195.74 518.21H1189.29C1192.03 518.796 1194.18 525.049 1195.15 531.302Z" fill="url(#paint41_linear_195_7866)"/>
<path d="M1189.68 414.053L1188.32 403.11C1177.76 404.282 1166.82 407.995 1167.41 412.294L1168.78 423.433C1168.19 419.134 1179.13 415.421 1189.68 414.053Z" fill="url(#paint42_linear_195_7866)"/>
<path d="M324.377 61.5267L323.009 50.3882C312.457 51.7561 301.709 55.4689 302.1 59.768L303.468 70.9066C302.882 66.6075 313.825 62.8946 324.377 61.5267Z" fill="url(#paint43_linear_195_7866)"/>
<path d="M1081.41 1.53612L1090.21 -5.49876C1083.37 -13.9015 1074.57 -21.1318 1070.67 -18.396L1061.87 -11.3612C1065.98 -13.9015 1074.77 -6.67124 1081.41 1.53612Z" fill="url(#paint44_linear_195_7866)"/>
<path d="M1363.79 25.1781L1362.42 14.0396C1351.87 15.4074 1341.12 19.1203 1341.51 23.4194L1342.88 34.3625C1342.29 30.0634 1353.24 26.3506 1363.79 25.1781Z" fill="url(#paint45_linear_195_7866)"/>
<path d="M872.92 -4.52063L871.552 -15.6592C861 -14.2913 850.056 -10.5784 850.643 -6.27935L852.011 4.85921C851.424 0.364702 862.367 -3.34815 872.92 -4.52063Z" fill="url(#paint46_linear_195_7866)"/>
<path d="M1381.19 362.853L1384.31 360.117C1381.77 357.186 1378.45 354.841 1377.28 355.818L1374.15 358.358C1375.32 357.381 1378.65 359.922 1381.19 362.853Z" fill="url(#paint47_linear_195_7866)"/>
<path d="M1408.34 157.866L1411.47 155.326C1408.93 152.395 1405.61 149.854 1404.43 150.831L1401.31 153.567C1402.48 151.809 1405.8 154.349 1408.34 157.866Z" fill="url(#paint48_linear_195_7866)"/>
<path d="M1172.48 273.549L1170.91 277.066C1174.24 278.63 1177.95 279.607 1178.54 278.239L1180.29 274.721C1178.93 276.089 1175.21 275.112 1172.48 273.549Z" fill="url(#paint49_linear_195_7866)"/>
<path d="M1129.29 282.346H1127.92C1127.92 283.714 1129.09 284.887 1129.68 284.691H1130.85C1130.85 284.691 1129.68 283.714 1129.29 282.346Z" fill="url(#paint50_linear_195_7866)"/>
<path d="M1134.77 211.802L1133.4 208.871C1130.66 210.043 1127.93 211.997 1128.51 213.17L1129.69 216.101C1129.3 214.928 1131.84 212.974 1134.77 211.802Z" fill="url(#paint51_linear_195_7866)"/>
<path d="M986.842 340.188L977.657 350.349C987.623 359.143 999.934 366.177 1003.45 362.074L1012.64 351.717C1008.92 355.821 996.612 348.786 986.842 340.188Z" fill="url(#paint52_linear_195_7866)"/>
<path d="M699.581 31.0425L690.396 40.6177C700.363 49.4113 712.674 56.4462 716.191 52.3425L725.375 41.9856C721.663 46.871 709.352 40.6177 699.581 31.0425Z" fill="url(#paint53_linear_195_7866)"/>
<path d="M1274.29 25.3759L1287.58 29.2842C1291.29 16.5823 1292.46 2.51259 1287.58 0.94928L1274.48 -2.95898C1279.17 -1.39568 1278.2 12.8695 1274.29 25.3759Z" fill="url(#paint54_linear_195_7866)"/>
<path d="M1051.51 143.6H1055.23C1055.23 139.496 1054.05 135.392 1052.49 135.588H1048.19C1050.34 135.392 1051.32 139.496 1051.51 143.6Z" fill="url(#paint55_linear_195_7866)"/>
<path d="M643.498 329.047L651.901 326.506C649.556 318.299 645.062 310.482 641.74 311.459L633.337 314C636.659 313.023 640.958 321.035 643.498 329.047Z" fill="url(#paint56_linear_195_7866)"/>
<path d="M456.101 23.812L464.699 21.0762C462.159 13.0643 457.86 5.05233 454.538 6.0294L445.939 8.56977C449.457 7.78812 453.756 15.8001 456.101 23.812Z" fill="url(#paint57_linear_195_7866)"/>
<path d="M262.436 580.154L268.299 578.395C266.54 572.533 263.413 566.866 261.069 567.648L255.011 569.406C257.356 568.234 260.678 574.487 262.436 580.154Z" fill="url(#paint58_linear_195_7866)"/>
<path d="M762.104 231.343L779.887 228.216C776.956 211.215 770.116 193.824 763.277 194.996L745.299 198.123C751.747 196.95 758.587 214.342 762.104 231.343Z" fill="url(#paint59_linear_195_7866)"/>
<path d="M266.346 8.37443L274.944 24.3983C290.186 16.191 304.451 4.857 301.129 -2.17788L293.117 -18.0063C296.049 -11.7531 281.588 0.16708 266.346 8.37443Z" fill="url(#paint60_linear_195_7866)"/>
<path d="M816.633 431.444H818.978C818.978 429.099 818.978 426.559 818.978 426.363H816.633C816.633 426.363 817.219 428.708 816.633 431.444Z" fill="url(#paint61_linear_195_7866)"/>
<path d="M1376.5 281.955H1378.84C1378.84 279.61 1378.84 277.265 1378.84 277.069H1376.5C1376.5 277.069 1377.09 279.805 1376.5 281.955Z" fill="url(#paint62_linear_195_7866)"/>
<path d="M885.224 338.624L886.201 336.67C884.442 336.67 882.488 335.107 882.097 336.67L880.925 338.624C880.925 338.624 883.465 337.647 885.224 338.624Z" fill="url(#paint63_linear_195_7866)"/>
<path d="M1395.44 491.829L1394.27 487.334C1389.97 488.507 1385.87 490.657 1386.26 492.415L1387.43 496.91C1387.43 495.151 1391.14 493.001 1395.44 491.829Z" fill="url(#paint64_linear_195_7866)"/>
<path d="M1219.38 432.42V430.662C1217.62 430.662 1216.06 432.811 1216.45 433.397V435.156C1216.45 435.156 1217.82 433.202 1219.38 432.42Z" fill="url(#paint65_linear_195_7866)"/>
<path d="M877.395 21.0758L880.522 18.34C877.786 15.4088 874.269 12.8684 873.096 14.0409L869.97 16.7767C871.142 15.6042 874.66 17.9492 877.395 21.0758Z" fill="url(#paint66_linear_195_7866)"/>
<path d="M1291.09 437.894L1285.22 440.434C1287.76 445.906 1291.48 451.182 1293.82 450.205L1299.49 447.665C1297.34 448.642 1293.43 443.366 1291.09 437.894Z" fill="url(#paint67_linear_195_7866)"/>
<path d="M641.143 99.2417L635.476 101.782C638.016 107.254 641.729 112.53 644.074 111.553L649.741 109.012C647.591 109.208 643.683 103.932 641.143 99.2417Z" fill="url(#paint68_linear_195_7866)"/>
<path d="M823.854 282.342L825.417 278.825C822.095 277.457 818.382 276.675 817.796 278.825L816.232 282.147C816.819 279.997 820.727 280.779 823.854 282.342Z" fill="url(#paint69_linear_195_7866)"/>
<path d="M843.602 177.406L840.28 171.543C835.004 174.865 830.314 179.751 831.682 181.9L835.199 187.372C833.636 185.222 838.326 180.337 843.602 177.406Z" fill="url(#paint70_linear_195_7866)"/>
<path d="M1211.57 585.038V582.498C1208.83 582.498 1206.09 581.521 1205.7 582.498V585.234C1206.88 584.256 1209.61 584.452 1211.57 585.038Z" fill="url(#paint71_linear_195_7866)"/>
<path d="M117.244 561.786L119.394 560.418C118.026 558.268 116.267 556.51 115.485 556.9L113.336 558.268C113.336 558.268 116.072 559.636 117.244 561.786Z" fill="url(#paint72_linear_195_7866)"/>
<path d="M728.104 401.548L725.173 399.594C723.219 402.525 721.851 405.847 723.024 406.629L725.955 408.583C724.782 407.802 726.15 404.48 728.104 401.548Z" fill="url(#paint73_linear_195_7866)"/>
<path d="M1104.87 392.362L1098.62 378.097C1084.94 384.154 1072.04 393.339 1074.58 399.006L1080.83 413.271C1078.29 408.386 1091.39 399.006 1104.87 392.362Z" fill="url(#paint74_linear_195_7866)"/>
<path d="M1363.98 74.8152L1357.73 60.1592C1344.05 66.0216 1331.15 75.4014 1333.69 80.873L1339.75 95.1381C1337.41 90.0574 1350.3 80.873 1363.98 74.8152Z" fill="url(#paint75_linear_195_7866)"/>
<path d="M171.382 145.552L165.129 131.482C151.645 137.345 138.748 146.725 141.093 152.196L147.346 166.461C144.806 160.794 157.899 151.61 171.382 145.552Z" fill="url(#paint76_linear_195_7866)"/>
<path d="M692.163 369.497H698.416C698.416 363.439 697.439 356.795 694.899 356.795H688.45C690.991 356.99 692.163 363.439 692.163 369.497Z" fill="url(#paint77_linear_195_7866)"/>
<path d="M525.853 40.618H532.301C532.301 34.3648 531.129 27.9161 528.588 27.7207H522.14C524.68 27.1345 526.048 33.5831 525.853 40.618Z" fill="url(#paint78_linear_195_7866)"/>
<path d="M1079.07 407.213H1077.12C1077.12 408.972 1077.12 410.926 1077.12 411.122H1079.07C1079.07 411.122 1078.68 408.972 1079.07 407.213Z" fill="url(#paint79_linear_195_7866)"/>
<path d="M69.7686 361.487L73.4814 369.109C80.7117 365.591 87.5512 360.315 86.1833 357.384L82.6658 349.763C84.0337 353.28 76.9988 357.97 69.7686 361.487Z" fill="url(#paint80_linear_195_7866)"/>
<path d="M975.689 442.387H977.252C977.252 440.823 974.712 439.455 974.126 439.846L972.562 441.019C972.562 441.019 974.712 440.823 975.689 442.387Z" fill="url(#paint81_linear_195_7866)"/>
<path d="M258.331 426.752V429.878C261.262 429.878 264.193 428.511 263.998 427.338V424.211C264.193 425.384 261.262 426.556 258.331 426.752Z" fill="url(#paint82_linear_195_7866)"/>
<path d="M695.662 283.124L694.099 286.446C697.225 288.009 700.743 288.791 701.329 287.423L702.892 284.296C702.306 285.468 698.789 284.687 695.662 283.124Z" fill="url(#paint83_linear_195_7866)"/>
<path d="M732.219 276.677L728.116 275.113C726.552 279.022 725.771 283.321 728.116 283.907L732.024 285.666C729.679 285.079 730.461 280.585 732.219 276.677Z" fill="url(#paint84_linear_195_7866)"/>
<path d="M604.217 64.8506L605.781 56.2525C597.573 54.4937 588.584 54.4937 587.803 57.8158L586.239 66.2185C587.216 62.8965 596.01 63.0919 604.217 64.8506Z" fill="url(#paint85_linear_195_7866)"/>
<path d="M327.908 509.61L329.276 511.955C331.426 510.588 333.38 508.633 332.794 507.656L332.207 505.702C332.207 505.702 330.058 508.438 327.908 509.61Z" fill="url(#paint86_linear_195_7866)"/>
<path d="M571.393 339.993L575.692 340.97C576.864 336.671 576.864 331.981 575.692 331.59L571.393 330.613C572.565 331.004 572.37 335.694 571.393 339.993Z" fill="url(#paint87_linear_195_7866)"/>
<path d="M419.748 266.321H411.149C411.149 274.528 411.149 283.126 414.862 283.517H423.46C420.138 283.322 418.966 275.114 419.748 266.321Z" fill="url(#paint88_linear_195_7866)"/>
<path d="M802.374 329.831V321.429C794.557 321.429 786.155 324.164 786.35 327.487V335.889C786.155 332.567 794.362 330.222 802.374 329.831Z" fill="url(#paint89_linear_195_7866)"/>
<path d="M78.1688 419.721L75.4331 417.767C73.4789 420.307 72.111 423.434 73.0881 424.215L75.8239 426.169C74.6514 425.388 76.0193 422.261 78.1688 419.721Z" fill="url(#paint90_linear_195_7866)"/>
<path d="M747.45 101.391L744.714 99.2417C742.76 101.782 741.392 104.909 742.565 105.69L745.105 107.644C744.128 107.058 745.496 103.932 747.45 101.391Z" fill="url(#paint91_linear_195_7866)"/>
<path d="M40.4572 398.812H36.3535C36.3535 402.915 38.1122 407.019 39.6755 406.823H43.9746C42.2159 407.019 41.0434 402.915 40.4572 398.812Z" fill="url(#paint92_linear_195_7866)"/>
<path d="M698.793 180.728H694.689C694.689 184.636 696.448 188.935 698.012 188.739H702.311C700.747 188.935 699.379 184.831 698.793 180.728Z" fill="url(#paint93_linear_195_7866)"/>
<path d="M602.461 120.543H598.357C598.357 124.647 600.116 128.751 601.679 128.555H605.979C604.22 128.751 603.047 124.647 602.461 120.543Z" fill="url(#paint94_linear_195_7866)"/>
<path d="M887.966 396.268L891.679 400.567C895.782 396.855 899.3 392.165 897.736 390.601L894.024 386.302C895.587 387.866 892.069 392.36 887.966 396.268Z" fill="url(#paint95_linear_195_7866)"/>
<path d="M78.1683 666.917H81.0995C81.0995 664.182 81.0995 661.25 79.1454 661.25H75.6279C76.8004 661.25 78.1683 664.182 78.1683 666.917Z" fill="url(#paint96_linear_195_7866)"/>
<path d="M80.8997 561.981L79.141 559.636C76.7961 561.395 74.6465 563.74 75.4282 564.717L77.1869 567.062C76.4052 566.085 78.1639 563.74 80.8997 561.981Z" fill="url(#paint97_linear_195_7866)"/>
<path d="M20.5193 604.19L19.5422 603.018C18.3698 604.19 17.3927 605.753 17.9789 606.144L19.5422 607.317C19.5422 607.317 19.5422 605.363 20.5193 604.19Z" fill="url(#paint98_linear_195_7866)"/>
<path d="M960.653 33.5839L958.699 31.8252C957.135 33.5839 955.767 35.7335 956.549 36.5151L958.308 38.2738C958.308 38.2738 958.894 35.3426 960.653 33.5839Z" fill="url(#paint99_linear_195_7866)"/>
<path d="M1241.84 290.356H1237.15C1237.15 295.046 1238.32 299.736 1240.28 299.541H1244.97C1243.01 299.541 1242.04 294.656 1241.84 290.356Z" fill="url(#paint100_linear_195_7866)"/>
<path d="M278.863 496.518H280.621C280.621 494.759 279.058 493.196 278.276 493.391H276.518C276.518 493.391 278.276 494.759 278.863 496.518Z" fill="url(#paint101_linear_195_7866)"/>
<path d="M831.479 369.693V371.843C833.434 371.843 835.583 370.67 835.583 369.888V367.543C835.779 368.521 833.629 369.302 831.479 369.693Z" fill="url(#paint102_linear_195_7866)"/>
<path d="M1379.62 572.922L1378.25 571.358C1376.69 572.531 1375.51 574.29 1376.1 574.876L1377.27 576.439C1377.27 576.439 1378.05 574.094 1379.62 572.922Z" fill="url(#paint103_linear_195_7866)"/>
<path d="M1342.09 674.536L1344.63 669.846C1340.14 667.501 1335.06 665.938 1334.08 667.696L1331.54 672.191C1332.52 670.432 1337.79 671.995 1342.09 674.536Z" fill="url(#paint104_linear_195_7866)"/>
<path d="M93.8033 653.436L92.6309 655.585C94.585 656.758 96.9299 657.539 97.5162 656.758L98.6887 654.608C98.6887 654.608 95.7575 654.608 93.8033 653.436Z" fill="url(#paint105_linear_195_7866)"/>
<path d="M35.9531 565.692H42.2063C42.2063 559.634 39.0797 553.381 36.7348 553.771H30.2861C32.8265 553.381 34.9761 559.634 35.9531 565.692Z" fill="url(#paint106_linear_195_7866)"/>
<path d="M24.4179 683.525L20.7051 685.479C22.073 688.997 24.2225 692.514 25.5904 691.928L29.3033 690.756C27.74 690.365 25.7858 687.043 24.4179 683.525Z" fill="url(#paint107_linear_195_7866)"/>
<path d="M452.194 372.822L453.562 370.672C451.608 369.5 449.263 368.718 448.676 369.5L447.504 371.454C447.504 371.454 449.458 372.822 452.194 372.822Z" fill="url(#paint108_linear_195_7866)"/>
<path d="M595.621 393.73L592.689 394.903C593.862 397.834 595.816 400.375 596.989 399.984L599.724 398.616C598.747 399.202 596.793 396.466 595.621 393.73Z" fill="url(#paint109_linear_195_7866)"/>
<path d="M1359.88 541.268L1353.24 535.601C1347.96 542.049 1343.66 549.866 1346.2 552.015L1352.84 557.682C1350.3 555.533 1354.6 548.693 1359.88 541.268Z" fill="url(#paint110_linear_195_7866)"/>
<path d="M640.573 209.848L633.929 204.181C628.458 210.434 624.354 218.25 626.894 220.595L633.538 226.262C630.803 223.917 635.102 216.492 640.573 209.848Z" fill="url(#paint111_linear_195_7866)"/>
<path d="M765.035 359.531L762.104 357.187C759.759 359.336 757.805 362.072 758.782 363.049L761.127 365.394C761.127 365.394 762.104 361.681 765.035 359.531Z" fill="url(#paint112_linear_195_7866)"/>
<path d="M152.023 580.542L147.724 585.427C152.414 589.531 158.471 592.853 160.035 590.899L164.529 586.014C162.77 587.772 156.322 584.646 152.023 580.542Z" fill="url(#paint113_linear_195_7866)"/>
<path d="M204.406 510.98H206.165C206.165 509.221 207.338 507.071 206.165 506.876H204.211C204.211 506.876 204.993 509.612 204.406 510.98Z" fill="url(#paint114_linear_195_7866)"/>
<path d="M269.075 386.696L270.052 388.064C271.42 387.087 272.593 385.915 272.202 385.328V383.96C272.202 383.96 270.443 385.719 269.075 386.696Z" fill="url(#paint115_linear_195_7866)"/>
<path d="M1044.09 356.992H1045.85C1045.85 355.233 1047.02 353.279 1045.85 353.083H1044.09C1044.09 353.083 1044.87 355.428 1044.09 356.992Z" fill="url(#paint116_linear_195_7866)"/>
<path d="M425.423 440.824V436.721C421.32 436.721 417.216 438.87 417.607 440.434V444.537C417.412 442.974 421.515 441.411 425.423 440.824Z" fill="url(#paint117_linear_195_7866)"/>
<path d="M390.826 496.126H393.757C393.757 493.39 393.757 490.264 393.757 490.068H390.826C392.389 490.068 392.194 493.39 390.826 496.126Z" fill="url(#paint118_linear_195_7866)"/>
<path d="M470.555 328.656H473.486C473.486 325.92 473.486 323.184 472.118 322.989H468.991C470.359 322.989 470.75 325.92 470.555 328.656Z" fill="url(#paint119_linear_195_7866)"/>
<path d="M175.872 346.049V353.279C182.712 351.911 189.551 349.176 188.965 346.244L187.597 339.209C188.769 341.75 181.93 344.681 175.872 346.049Z" fill="url(#paint120_linear_195_7866)"/>
<path d="M171.771 409.365L169.23 411.319C171.185 413.664 173.53 415.618 174.507 414.836L176.852 412.882C176.852 412.882 173.53 411.905 171.771 409.365Z" fill="url(#paint121_linear_195_7866)"/>
<path d="M460.786 439.262L462.936 442.584C466.062 440.63 468.993 437.895 468.212 436.527L466.258 433.205C467.039 434.377 464.108 437.308 460.786 439.262Z" fill="url(#paint122_linear_195_7866)"/>
<path d="M512.561 397.247H527.217C527.217 383.177 524.872 368.326 519.01 368.13H504.354C510.216 368.326 512.952 383.177 512.561 397.247Z" fill="url(#paint123_linear_195_7866)"/>
<path d="M162.59 539.9L166.303 543.222C169.625 539.9 172.361 535.601 170.797 534.233L167.28 530.716C168.648 532.084 165.912 536.383 162.59 539.9Z" fill="url(#paint124_linear_195_7866)"/>
<path d="M466.836 107.647V112.337C471.33 112.337 476.216 112.337 476.411 110.969V106.279C476.216 108.038 471.33 108.428 466.836 107.647Z" fill="url(#paint125_linear_195_7866)"/>
<path d="M794.168 32.0211L791.432 17.5605C777.558 20.1009 763.488 25.9633 764.66 31.6303L767.201 46.0909C766.224 40.6193 780.293 34.5615 794.168 32.0211Z" fill="url(#paint126_linear_195_7866)"/>
<path d="M1397.98 646.396L1402.48 641.511C1397.98 637.212 1392.31 633.89 1390.36 635.648L1386.06 640.338C1387.43 637.603 1393.49 641.12 1397.98 646.396Z" fill="url(#paint127_linear_195_7866)"/>
<path d="M190.72 644.445L191.698 643.077C190.525 643.077 188.962 641.319 188.376 641.905L187.398 643.273C187.398 643.273 189.353 643.468 190.72 644.445Z" fill="url(#paint128_linear_195_7866)"/>
<path d="M78.1606 500.231L73.8615 496.518C70.1486 500.426 67.2174 505.703 68.9761 507.07L73.0798 510.979C70.7349 509.611 73.6661 504.335 78.1606 500.231Z" fill="url(#paint129_linear_195_7866)"/>
<path d="M103.571 501.013H100.054C100.054 504.335 100.054 508.048 101.617 508.048H105.134C103.767 508.048 103.376 504.335 103.571 501.013Z" fill="url(#paint130_linear_195_7866)"/>
<path d="M49.0497 149.855H45.5322C45.5322 153.177 45.5322 156.89 47.0955 156.89H50.613C49.2451 156.695 48.6588 153.177 49.0497 149.855Z" fill="url(#paint131_linear_195_7866)"/>
<path d="M32.251 452.156V460.363C40.0675 460.363 48.4703 460.363 48.8611 457.041V448.834C48.4703 452.156 40.0675 452.938 32.251 452.156Z" fill="url(#paint132_linear_195_7866)"/>
<path d="M138.557 440.629V432.227C130.35 432.227 121.947 432.227 121.752 436.135V444.538C121.947 441.216 130.546 440.043 138.557 440.629Z" fill="url(#paint133_linear_195_7866)"/>
<path d="M836.372 93.1852L833.636 105.301C845.361 107.841 858.062 108.037 859.039 103.151L861.775 91.0356C859.821 95.921 847.901 95.7256 836.372 93.1852Z" fill="url(#paint134_linear_195_7866)"/>
<path d="M247.786 539.505L251.303 536.965C248.958 533.643 245.636 530.712 244.268 531.689L240.946 534.229C242.314 533.252 245.441 536.183 247.786 539.505Z" fill="url(#paint135_linear_195_7866)"/>
<path d="M219.056 470.527H212.607C212.607 476.975 215.148 483.424 217.688 483.229H224.332C221.596 483.815 219.642 477.171 219.056 470.527Z" fill="url(#paint136_linear_195_7866)"/>
<path d="M42.8022 315.565H36.3535C36.3535 321.819 38.8939 328.267 41.4343 328.072H48.0783C45.3425 328.267 43.3884 321.819 42.8022 315.565Z" fill="url(#paint137_linear_195_7866)"/>
<path d="M314.42 410.143L312.661 411.901C313.834 413.074 315.202 414.051 315.788 413.66L316.96 412.488C316.96 412.488 315.592 411.901 314.42 410.143Z" fill="url(#paint138_linear_195_7866)"/>
<path d="M361.325 403.304V401.545C359.371 401.545 357.612 401.545 357.808 403.108V405.062C357.808 405.062 359.567 403.694 361.325 403.304Z" fill="url(#paint139_linear_195_7866)"/>
<path d="M356.629 291.526L358.192 292.699C359.365 291.136 360.146 289.377 359.56 288.986L357.801 287.813C357.801 287.813 357.801 290.158 356.629 291.526Z" fill="url(#paint140_linear_195_7866)"/>
<path d="M1019.47 493.392V491.242C1017.51 491.242 1015.17 491.242 1014.78 491.242V493.587C1014.97 492.61 1017.32 492.806 1019.47 493.392Z" fill="url(#paint141_linear_195_7866)"/>
<path d="M927.831 356.211V359.142C930.762 359.142 933.693 359.142 933.693 357.188V354.257C933.498 355.429 930.567 356.211 927.831 356.211Z" fill="url(#paint142_linear_195_7866)"/>
<path d="M585.075 282.149L591.524 287.621C596.8 281.563 600.904 274.137 598.559 271.988L592.11 266.321C594.65 268.47 590.351 276.091 585.075 282.149Z" fill="url(#paint143_linear_195_7866)"/>
<path d="M29.3125 211.8L35.5657 217.271C40.8419 211.213 45.141 203.788 42.6006 201.638L36.3474 196.948C39.0832 198.121 34.5887 205.742 29.3125 211.8Z" fill="url(#paint144_linear_195_7866)"/>
<path d="M514.715 225.478L490.288 231.34C496.15 254.79 507.289 278.044 516.864 275.699L541.291 269.641C531.716 271.986 520.382 248.732 514.715 225.478Z" fill="url(#paint145_linear_195_7866)"/>
<path d="M443.191 297V298.758C444.755 298.758 446.318 297.195 446.123 296.609V294.85C446.123 294.85 444.755 296.609 443.191 297Z" fill="url(#paint146_linear_195_7866)"/>
<path d="M924.492 153.955L925.665 155.518C927.228 154.541 928.596 152.978 928.205 152.392L927.033 150.633C927.033 150.633 926.055 152.782 924.492 153.955Z" fill="url(#paint147_linear_195_7866)"/>
<path d="M349.011 403.893H345.885C345.885 407.019 345.885 410.146 347.643 410.341H351.747C349.598 410.146 349.011 406.824 349.011 403.893Z" fill="url(#paint148_linear_195_7866)"/>
<path d="M92.4372 178.776H89.3105C89.3105 181.902 89.3105 185.029 91.0693 185.225H94.1959C93.0234 185.029 92.4372 181.707 92.4372 178.776Z" fill="url(#paint149_linear_195_7866)"/>
<path d="M396.68 79.7002H391.99C391.99 84.1947 394.14 88.6892 396.094 88.2984H400.588C398.83 89.2754 397.266 84.7809 396.68 79.7002Z" fill="url(#paint150_linear_195_7866)"/>
<path d="M323.795 231.144L319.3 229.19C317.346 233.294 316.174 237.984 317.932 238.961L322.231 240.915C320.473 240.133 321.645 236.029 323.795 231.144Z" fill="url(#paint151_linear_195_7866)"/>
<path d="M1299.31 50.9733L1295.01 48.8237C1292.86 52.9274 1291.69 57.8127 1293.44 58.5944L1297.74 60.7439C1295.98 60.1577 1297.16 55.077 1299.31 50.9733Z" fill="url(#paint152_linear_195_7866)"/>
<path d="M290.781 229.192V226.456C288.241 226.456 285.505 226.456 285.505 227.629V230.364C285.505 229.192 288.241 228.801 290.781 229.192Z" fill="url(#paint153_linear_195_7866)"/>
<path d="M224.146 342.921L218.675 345.657C221.215 350.933 225.123 355.818 227.273 354.841L232.745 351.91C230.595 353.278 226.687 348.197 224.146 342.921Z" fill="url(#paint154_linear_195_7866)"/>
<path d="M252.857 395.291H246.213C246.213 401.74 246.213 408.579 248.753 408.775H255.397C252.857 408.384 252.075 401.544 252.857 395.291Z" fill="url(#paint155_linear_195_7866)"/>
<path d="M209.866 290.161H206.349C206.349 293.483 207.521 297 208.889 297H212.406C211.039 297.196 210.061 293.483 209.866 290.161Z" fill="url(#paint156_linear_195_7866)"/>
<path d="M267.709 247.758L261.651 251.275C265.169 257.138 270.25 262.218 272.594 260.85L278.457 257.138C276.112 258.506 271.227 253.425 267.709 247.758Z" fill="url(#paint157_linear_195_7866)"/>
<path d="M288.234 196.95L290.97 197.927C290.97 195.191 292.338 192.064 290.97 191.673H288.234C289.407 190.11 289.211 193.237 288.234 196.95Z" fill="url(#paint158_linear_195_7866)"/>
<path d="M277.875 407.409H276.116C276.116 409.167 277.289 410.926 278.07 410.731H279.829C279.829 410.731 278.266 409.167 277.875 407.409Z" fill="url(#paint159_linear_195_7866)"/>
<path d="M576.472 76.1841H574.713C574.713 78.1382 575.885 79.8969 576.667 79.7015H578.426C578.426 79.7015 576.862 77.9428 576.472 76.1841Z" fill="url(#paint160_linear_195_7866)"/>
<path d="M650.727 12.2838L663.038 11.1113C661.865 -0.808921 657.957 -12.7291 653.072 -12.3383L640.761 -10.9704C644.864 -11.5566 649.554 1.53604 650.727 12.2838Z" fill="url(#paint161_linear_195_7866)"/>
<path d="M312.664 353.279L310.905 359.532C316.768 361.095 323.412 361.486 324.193 359.532L325.757 353.279C325.561 356.015 318.917 355.624 312.664 353.279Z" fill="url(#paint162_linear_195_7866)"/>
<path d="M365.61 199.486H370.3C370.3 194.797 370.3 189.911 368.151 189.716H363.461C365.415 190.107 366.001 194.992 365.61 199.486Z" fill="url(#paint163_linear_195_7866)"/>
<path d="M97.7026 613.375L99.8522 611.811C98.2889 609.662 96.1393 607.708 95.1622 608.489L93.0127 610.053C93.0127 610.053 95.3576 611.225 97.7026 613.375Z" fill="url(#paint164_linear_195_7866)"/>
<path d="M428.542 435.157H432.451C432.451 431.249 431.474 427.341 429.91 427.341H425.807C427.37 427.341 428.347 431.444 428.542 435.157Z" fill="url(#paint165_linear_195_7866)"/>
<path d="M515.688 148.681L532.103 162.36C545.196 146.727 555.553 127.381 549.104 122.105L532.885 108.426C539.138 113.702 528.781 133.048 515.688 148.681Z" fill="url(#paint166_linear_195_7866)"/>
<path d="M243.87 138.324L233.122 156.693C250.905 167.05 272.205 173.889 275.722 166.659L286.47 148.29C282.366 154.739 261.457 147.704 243.87 138.324Z" fill="url(#paint167_linear_195_7866)"/>
<path d="M1361.84 199.684L1350.12 181.901C1333.12 193.04 1317.68 208.478 1322.18 215.512L1333.9 233.295C1328.82 226.26 1344.65 210.823 1361.84 199.684Z" fill="url(#paint168_linear_195_7866)"/>
<path d="M950.488 303.644L940.132 300.127C936.81 310.093 935.442 321.036 940.132 322.404L950.293 325.921C945.799 324.554 947.166 314.197 950.488 303.644Z" fill="url(#paint169_linear_195_7866)"/>
<path d="M71.1315 237.792L64.292 246.194C72.3039 252.838 82.27 257.919 85.0058 254.597L91.8453 246.194C89.1095 249.516 79.1434 244.436 71.1315 237.792Z" fill="url(#paint170_linear_195_7866)"/>
<path d="M23.0674 -4.91504H19.1592C19.1592 -1.00677 19.1592 3.0969 20.5271 3.29232H24.4353C22.872 3.0969 22.6766 -1.00677 23.0674 -4.91504Z" fill="url(#paint171_linear_195_7866)"/>
<path d="M1012.83 194.603L1011.46 191.476C1008.53 192.844 1005.79 194.994 1006.38 196.166L1007.75 199.097C1007.16 197.925 1009.9 196.948 1012.83 194.603Z" fill="url(#paint172_linear_195_7866)"/>
<path d="M1000.12 403.89L1003.05 406.235C1005.2 403.304 1006.57 399.982 1005.39 399.005L1002.46 396.855C1003.64 397.637 1002.07 401.155 1000.12 403.89Z" fill="url(#paint173_linear_195_7866)"/>
<path d="M1028.27 451.96H1031C1031 449.225 1028.66 446.684 1027.68 447.075H1024.95C1024.95 447.075 1027.49 449.42 1028.27 451.96Z" fill="url(#paint174_linear_195_7866)"/>
<path d="M1096.47 416.202L1098.23 414.443C1096.66 411.903 1094.32 411.903 1094.32 411.903L1092.56 413.662C1092.56 413.662 1094.32 414.443 1096.47 416.202Z" fill="url(#paint175_linear_195_7866)"/>
<path d="M127.609 316.347V321.037C132.104 321.037 136.794 321.037 137.185 319.865V315.37C136.794 317.129 131.908 317.129 127.609 316.347Z" fill="url(#paint176_linear_195_7866)"/>
<path d="M1040.96 43.7461V48.436C1045.45 48.436 1050.14 48.436 1050.53 47.2635L1051.51 42.769C1050.34 44.5278 1045.45 44.5278 1040.96 43.7461Z" fill="url(#paint177_linear_195_7866)"/>
<path d="M1095.3 161.773L1092.37 162.945C1093.34 165.877 1095.1 168.612 1096.28 168.026H1099.21C1099.21 168.026 1096.28 164.704 1095.3 161.773Z" fill="url(#paint178_linear_195_7866)"/>
<path d="M1104.86 211.41V208.284C1101.93 208.284 1099 208.284 1099 210.238V213.364C1098.8 212.192 1101.93 211.41 1104.86 211.41Z" fill="url(#paint179_linear_195_7866)"/>
<path d="M399.041 15.6056V12.479C396.11 12.479 392.983 12.479 392.983 14.4331V17.5597C393.179 16.3873 396.11 15.6056 399.041 15.6056Z" fill="url(#paint180_linear_195_7866)"/>
<path d="M1118.35 524.459V522.896C1116.79 522.896 1115.22 524.264 1115.42 524.85V526.609C1115.42 526.609 1116.59 525.046 1118.35 524.459Z" fill="url(#paint181_linear_195_7866)"/>
<path d="M1124.02 472.287H1121.87C1121.87 474.241 1121.87 476.586 1123.43 476.391H1125.58C1125.58 476.391 1124.21 474.437 1124.02 472.287Z" fill="url(#paint182_linear_195_7866)"/>
<path d="M1222.12 223.527L1209.81 225.09C1211.37 237.01 1215.67 249.126 1220.55 248.54L1233.06 246.976C1228.18 247.563 1223.88 236.033 1222.12 223.527Z" fill="url(#paint183_linear_195_7866)"/>
<path d="M117.254 29.0864L104.748 30.8451C106.311 42.7653 110.61 54.881 115.496 54.0993L128.002 52.536C123.312 53.1223 119.013 40.6158 117.254 29.0864Z" fill="url(#paint184_linear_195_7866)"/>
<path d="M571.59 -15.4683L559.084 -13.7095C560.647 -1.78934 565.142 10.3263 569.832 9.54463L582.338 7.98132C577.453 8.56756 573.154 -3.54806 571.59 -15.4683Z" fill="url(#paint185_linear_195_7866)"/>
<path d="M1252.8 181.12H1254.75C1254.75 179.361 1254.75 177.407 1254.75 177.211H1253C1253 177.211 1253.19 179.361 1252.8 181.12Z" fill="url(#paint186_linear_195_7866)"/>
<path d="M1259.63 267.103L1263.35 263.195C1259.63 259.873 1254.94 256.941 1253.58 258.505L1249.86 262.218C1250.64 260.85 1255.92 263.585 1259.63 267.103Z" fill="url(#paint187_linear_195_7866)"/>
<path d="M1222.51 339.404V333.737C1217.04 333.737 1211.18 333.737 1211.18 336.668V342.335C1211.57 340.186 1217.04 339.209 1222.51 339.404Z" fill="url(#paint188_linear_195_7866)"/>
<path d="M807.834 101.588V95.9209C802.362 95.9209 796.5 95.9209 796.5 99.0475V104.714C796.695 102.37 802.558 101.392 807.834 101.588Z" fill="url(#paint189_linear_195_7866)"/>
<path d="M1150.6 104.518L1147.08 99.2417C1142.2 102.564 1137.9 107.254 1139.27 109.208L1142.78 114.289C1141.41 112.53 1145.71 107.84 1150.6 104.518Z" fill="url(#paint190_linear_195_7866)"/>
<path d="M146.567 3.68621L143.049 -1.39453C138.164 1.92749 133.865 6.61741 135.233 8.57154L138.75 13.6523C136.796 11.6982 141.682 7.00823 146.567 3.68621Z" fill="url(#paint191_linear_195_7866)"/>
<path d="M1254.36 43.3512L1250.65 38.2705C1245.76 41.5925 1241.46 46.2824 1242.83 48.2366L1246.15 53.3173C1244.98 51.3632 1249.47 46.6733 1254.36 43.3512Z" fill="url(#paint192_linear_195_7866)"/>
<path d="M1195.53 196.951L1193.18 194.41C1190.84 196.755 1188.69 199.686 1189.67 200.663L1192.01 203.008C1192.01 202.227 1193.18 199.295 1195.53 196.951Z" fill="url(#paint193_linear_195_7866)"/>
<path d="M1089.63 456.262L1085.14 450.985C1080.25 455.284 1076.34 460.756 1078.1 462.71L1082.6 467.595C1080.84 466.032 1084.75 460.561 1089.63 456.262Z" fill="url(#paint194_linear_195_7866)"/>
<path d="M1211.56 62.1153L1207.07 57.23C1202.38 61.5291 1198.27 67.0006 1200.03 68.9548L1204.53 73.8401C1202.77 72.0814 1206.87 66.4144 1211.56 62.1153Z" fill="url(#paint195_linear_195_7866)"/>
<path d="M439.482 364.613L436.355 362.854C434.792 365.785 433.815 369.107 434.987 369.889L437.918 371.452C436.746 370.866 437.723 367.544 439.482 364.613Z" fill="url(#paint196_linear_195_7866)"/>
<path d="M943.064 419.329V416.984C940.915 416.984 938.179 416.007 937.983 416.984V419.329C937.983 418.351 940.719 418.742 943.064 419.329Z" fill="url(#paint197_linear_195_7866)"/>
<path d="M1337.02 494.562H1339.56C1339.56 492.217 1339.56 489.482 1339.56 489.286H1336.83C1337.41 490.068 1337.41 492.022 1337.02 494.562Z" fill="url(#paint198_linear_195_7866)"/>
<path d="M1097.82 348.979L1099.97 346.634C1097.82 344.68 1095.09 343.117 1094.31 344.094L1092.16 346.243C1092.16 346.243 1095.67 347.025 1097.82 348.979Z" fill="url(#paint199_linear_195_7866)"/>
<path d="M923.136 229.386V231.536C925.285 231.536 927.239 229.191 926.849 228.409V226.064C926.849 226.064 925.285 228.409 923.136 229.386Z" fill="url(#paint200_linear_195_7866)"/>
<path d="M1172.48 382.982H1170.72C1170.72 384.741 1172.09 386.5 1172.68 386.304H1174.63C1174.63 386.304 1173.85 384.741 1172.48 382.982Z" fill="url(#paint201_linear_195_7866)"/>
<path d="M1168.57 358.553L1171.11 361.289C1173.84 358.944 1176.19 355.622 1175.21 354.645L1172.47 351.714C1173.65 353.277 1171.3 356.013 1168.57 358.553Z" fill="url(#paint202_linear_195_7866)"/>
<path d="M1387.43 40.6162L1389.97 43.5474C1392.71 41.007 1395.06 37.8804 1394.08 36.708L1391.34 33.9722C1392.52 34.5584 1390.17 37.8804 1387.43 40.6162Z" fill="url(#paint203_linear_195_7866)"/>
<path d="M1132.23 317.715V315.37C1129.89 315.37 1127.74 317.324 1127.93 318.301V320.646C1127.93 320.646 1129.89 318.497 1132.23 317.715Z" fill="url(#paint204_linear_195_7866)"/>
<path d="M1005.4 142.819H1008.92C1008.92 139.497 1007.94 135.784 1006.57 135.98H1003.06C1004.42 135.98 1005.21 139.497 1005.4 142.819Z" fill="url(#paint205_linear_195_7866)"/>
<path d="M52.7629 18.5344H56.2804C56.2804 15.2123 56.2804 11.6949 53.9354 11.6949H50.418C51.7859 11.4995 52.5675 15.2123 52.7629 18.5344Z" fill="url(#paint206_linear_195_7866)"/>
<path d="M598.546 194.211H602.064C602.064 190.888 602.064 187.371 599.719 187.371H596.201C597.569 187.176 598.546 190.693 598.546 194.211Z" fill="url(#paint207_linear_195_7866)"/>
<path d="M223.754 219.225H230.007C230.007 213.167 230.007 206.719 227.467 206.523H221.214C223.559 206.719 224.34 213.167 223.754 219.225Z" fill="url(#paint208_linear_195_7866)"/>
<path d="M520.195 321.621H526.448C526.448 315.563 526.448 309.115 523.908 308.919H517.654C520.195 309.115 520.781 315.563 520.195 321.621Z" fill="url(#paint209_linear_195_7866)"/>
<path d="M1091.2 187.96H1088.26C1088.26 190.891 1088.26 193.822 1089.24 194.018H1092.17C1091 193.627 1090.81 190.696 1091.2 187.96Z" fill="url(#paint210_linear_195_7866)"/>
<path d="M1159.58 272.768L1164.07 266.905C1158.4 262.606 1151.37 259.284 1149.61 261.629L1145.12 267.492C1146.87 265.147 1153.91 268.469 1159.58 272.768Z" fill="url(#paint211_linear_195_7866)"/>
<path d="M995.249 3.0961L999.743 -2.76629C994.076 -7.2608 987.237 -10.3874 985.478 -8.23786L980.788 -2.18005C982.547 -4.52501 989.582 -1.20299 995.249 3.0961Z" fill="url(#paint212_linear_195_7866)"/>
<path d="M955.177 198.316H960.257C960.257 193.626 960.257 188.35 960.257 187.959L955.177 186.982C956.349 188.35 956.349 193.626 955.177 198.316Z" fill="url(#paint213_linear_195_7866)"/>
<path d="M800.014 148.095L805.095 149.267C805.095 144.382 805.095 139.301 804.118 138.91L799.037 138.324C801.187 138.324 801.187 143.405 800.014 148.095Z" fill="url(#paint214_linear_195_7866)"/>
<path d="M190.131 14.0435H195.017C195.017 9.35361 195.017 4.07745 194.04 3.68662L189.154 3.49121C191.108 3.88204 191.108 9.1582 190.131 14.0435Z" fill="url(#paint215_linear_195_7866)"/>
<path d="M1136.33 315.172L1134.57 313.022C1132.42 314.781 1130.67 317.126 1131.45 318.103L1133.21 320.253C1133.21 320.253 1134.38 316.931 1136.33 315.172Z" fill="url(#paint216_linear_195_7866)"/>
<path d="M980.195 266.907L981.368 271.597C985.862 270.425 990.357 268.275 989.966 266.517L988.793 261.827C989.184 263.585 984.69 265.735 980.195 266.907Z" fill="url(#paint217_linear_195_7866)"/>
<path d="M1365.94 262.803L1363.99 261.24C1362.43 262.998 1361.25 265.148 1362.03 265.93L1363.79 267.493C1363.79 267.493 1364.38 264.562 1365.94 262.803Z" fill="url(#paint218_linear_195_7866)"/>
<path d="M914.333 79.6986L912.574 78.1353C911.011 79.894 909.643 82.0435 910.425 82.8252L912.184 84.3885C912.184 84.3885 912.77 80.871 914.333 79.6986Z" fill="url(#paint219_linear_195_7866)"/>
<path d="M990.739 202.029L985.463 207.696C990.739 212.582 997.579 216.685 999.533 214.536L1004.81 209.064C1002.66 211.214 996.601 207.11 990.739 202.029Z" fill="url(#paint220_linear_195_7866)"/>
<path d="M1022.2 43.9397L1016.14 40.6177C1013.01 45.8938 1011.06 52.3425 1013.41 53.5149L1019.07 56.6416C1017.12 55.6645 1019.07 49.2159 1022.2 43.9397Z" fill="url(#paint221_linear_195_7866)"/>
</g>
<defs>
<linearGradient id="paint0_linear_195_7866" x1="1143.93" y1="186.384" x2="1150.03" y2="184.291" gradientUnits="userSpaceOnUse">
<stop stop-color="#00A1FF"/>
<stop offset="1" stop-color="#422FD4"/>
</linearGradient>
<linearGradient id="paint1_linear_195_7866" x1="296.601" y1="308.981" x2="304.549" y2="306.254" gradientUnits="userSpaceOnUse">
<stop stop-color="#C20094"/>
<stop offset="1" stop-color="#9C00C2"/>
</linearGradient>
<linearGradient id="paint2_linear_195_7866" x1="727.283" y1="149.828" x2="735.231" y2="147.101" gradientUnits="userSpaceOnUse">
<stop stop-color="#C20094"/>
<stop offset="1" stop-color="#9C00C2"/>
</linearGradient>
<linearGradient id="paint3_linear_195_7866" x1="1060.71" y1="111.232" x2="1066.26" y2="109.329" gradientUnits="userSpaceOnUse">
<stop stop-color="#D1D100"/>
<stop offset="1" stop-color="#93D100"/>
</linearGradient>
<linearGradient id="paint4_linear_195_7866" x1="977.86" y1="93.7945" x2="992.092" y2="88.9107" gradientUnits="userSpaceOnUse">
<stop stop-color="#C20094"/>
<stop offset="1" stop-color="#9C00C2"/>
</linearGradient>
<linearGradient id="paint5_linear_195_7866" x1="960.245" y1="134.552" x2="975.956" y2="129.161" gradientUnits="userSpaceOnUse">
<stop stop-color="#FF0063"/>
<stop offset="1" stop-color="#FF6A45"/>
</linearGradient>
<linearGradient id="paint6_linear_195_7866" x1="446.207" y1="77.2817" x2="449.534" y2="76.14" gradientUnits="userSpaceOnUse">
<stop stop-color="#C20094"/>
<stop offset="1" stop-color="#9C00C2"/>
</linearGradient>
<linearGradient id="paint7_linear_195_7866" x1="1031.48" y1="259.679" x2="1034.62" y2="258.601" gradientUnits="userSpaceOnUse">
<stop stop-color="#FF0063"/>
<stop offset="1" stop-color="#FF6A45"/>
</linearGradient>
<linearGradient id="paint8_linear_195_7866" x1="407.521" y1="146.963" x2="418.241" y2="143.284" gradientUnits="userSpaceOnUse">
<stop stop-color="#D1D100"/>
<stop offset="1" stop-color="#93D100"/>
</linearGradient>
<linearGradient id="paint9_linear_195_7866" x1="876.378" y1="155.684" x2="882.662" y2="153.527" gradientUnits="userSpaceOnUse">
<stop stop-color="#FFA600"/>
<stop offset="1" stop-color="#FFD100"/>
</linearGradient>
<linearGradient id="paint10_linear_195_7866" x1="418.762" y1="211.068" x2="450.369" y2="200.222" gradientUnits="userSpaceOnUse">
<stop stop-color="#00A1FF"/>
<stop offset="1" stop-color="#27D3FF"/>
</linearGradient>
<linearGradient id="paint11_linear_195_7866" x1="-35.3583" y1="-1057.19" x2="-9.81388" y2="-1035.01" gradientUnits="userSpaceOnUse">
<stop stop-color="#00A1FF"/>
<stop offset="1" stop-color="#27D3FF"/>
</linearGradient>
<linearGradient id="paint12_linear_195_7866" x1="1134.11" y1="80.4022" x2="1111.89" y2="55.4412" gradientUnits="userSpaceOnUse">
<stop stop-color="#00A1FF"/>
<stop offset="1" stop-color="#27D3FF"/>
</linearGradient>
<linearGradient id="paint13_linear_195_7866" x1="714.582" y1="97.0755" x2="689.912" y2="119.904" gradientUnits="userSpaceOnUse">
<stop stop-color="#00A1FF"/>
<stop offset="1" stop-color="#27D3FF"/>
</linearGradient>
<linearGradient id="paint14_linear_195_7866" x1="1044.59" y1="218.405" x2="1061.97" y2="212.443" gradientUnits="userSpaceOnUse">
<stop stop-color="#C20094"/>
<stop offset="1" stop-color="#9C00C2"/>
</linearGradient>
<linearGradient id="paint15_linear_195_7866" x1="336.955" y1="268.89" x2="341.206" y2="267.431" gradientUnits="userSpaceOnUse">
<stop stop-color="#00A1FF"/>
<stop offset="1" stop-color="#422FD4"/>
</linearGradient>
<linearGradient id="paint16_linear_195_7866" x1="128.741" y1="111.229" x2="132.992" y2="109.77" gradientUnits="userSpaceOnUse">
<stop stop-color="#00A1FF"/>
<stop offset="1" stop-color="#422FD4"/>
</linearGradient>
<linearGradient id="paint17_linear_195_7866" x1="245.385" y1="108.591" x2="259.987" y2="103.58" gradientUnits="userSpaceOnUse">
<stop stop-color="#00A1FF"/>
<stop offset="1" stop-color="#422FD4"/>
</linearGradient>
<linearGradient id="paint18_linear_195_7866" x1="998.785" y1="292.599" x2="1008.03" y2="289.428" gradientUnits="userSpaceOnUse">
<stop stop-color="#D1D100"/>
<stop offset="1" stop-color="#93D100"/>
</linearGradient>
<linearGradient id="paint19_linear_195_7866" x1="867.508" y1="311.612" x2="891.537" y2="303.366" gradientUnits="userSpaceOnUse">
<stop stop-color="#FFA600"/>
<stop offset="1" stop-color="#FFD100"/>
</linearGradient>
<linearGradient id="paint20_linear_195_7866" x1="339.301" y1="464.77" x2="350.575" y2="460.901" gradientUnits="userSpaceOnUse">
<stop stop-color="#D1D100"/>
<stop offset="1" stop-color="#93D100"/>
</linearGradient>
<linearGradient id="paint21_linear_195_7866" x1="38.8515" y1="65.427" x2="50.3112" y2="61.4946" gradientUnits="userSpaceOnUse">
<stop stop-color="#D1D100"/>
<stop offset="1" stop-color="#93D100"/>
</linearGradient>
<linearGradient id="paint22_linear_195_7866" x1="363.587" y1="477.716" x2="367.838" y2="476.257" gradientUnits="userSpaceOnUse">
<stop stop-color="#FFA600"/>
<stop offset="1" stop-color="#FFD100"/>
</linearGradient>
<linearGradient id="paint23_linear_195_7866" x1="1041.99" y1="307.728" x2="1059.36" y2="301.766" gradientUnits="userSpaceOnUse">
<stop stop-color="#FF0063"/>
<stop offset="1" stop-color="#FF6A45"/>
</linearGradient>
<linearGradient id="paint24_linear_195_7866" x1="1271.01" y1="176.243" x2="1288.57" y2="170.218" gradientUnits="userSpaceOnUse">
<stop stop-color="#FF0063"/>
<stop offset="1" stop-color="#FF6A45"/>
</linearGradient>
<linearGradient id="paint25_linear_195_7866" x1="668.057" y1="237.916" x2="685.617" y2="231.891" gradientUnits="userSpaceOnUse">
<stop stop-color="#FF0063"/>
<stop offset="1" stop-color="#FF6A45"/>
</linearGradient>
<linearGradient id="paint26_linear_195_7866" x1="177.323" y1="91.4556" x2="194.883" y2="85.4301" gradientUnits="userSpaceOnUse">
<stop stop-color="#FF0063"/>
<stop offset="1" stop-color="#FF6A45"/>
</linearGradient>
<linearGradient id="paint27_linear_195_7866" x1="1103.23" y1="273.073" x2="1107.48" y2="271.615" gradientUnits="userSpaceOnUse">
<stop stop-color="#C20094"/>
<stop offset="1" stop-color="#9C00C2"/>
</linearGradient>
<linearGradient id="paint28_linear_195_7866" x1="1139.45" y1="308.784" x2="1142.41" y2="307.769" gradientUnits="userSpaceOnUse">
<stop stop-color="#FFA600"/>
<stop offset="1" stop-color="#FFD100"/>
</linearGradient>
<linearGradient id="paint29_linear_195_7866" x1="1125.25" y1="42.8076" x2="1137.63" y2="38.558" gradientUnits="userSpaceOnUse">
<stop stop-color="#FFA600"/>
<stop offset="1" stop-color="#FFD100"/>
</linearGradient>
<linearGradient id="paint30_linear_195_7866" x1="1380.73" y1="240.659" x2="1386.09" y2="238.82" gradientUnits="userSpaceOnUse">
<stop stop-color="#FFA600"/>
<stop offset="1" stop-color="#FFD100"/>
</linearGradient>
<linearGradient id="paint31_linear_195_7866" x1="1297.58" y1="286.747" x2="1301.65" y2="285.352" gradientUnits="userSpaceOnUse">
<stop stop-color="#00A1FF"/>
<stop offset="1" stop-color="#422FD4"/>
</linearGradient>
<linearGradient id="paint32_linear_195_7866" x1="1214.59" y1="483.812" x2="1225.49" y2="480.07" gradientUnits="userSpaceOnUse">
<stop stop-color="#00A1FF"/>
<stop offset="1" stop-color="#27D3FF"/>
</linearGradient>
<linearGradient id="paint33_linear_195_7866" x1="1354.99" y1="139.784" x2="1365.71" y2="136.105" gradientUnits="userSpaceOnUse">
<stop stop-color="#00A1FF"/>
<stop offset="1" stop-color="#27D3FF"/>
</linearGradient>
<linearGradient id="paint34_linear_195_7866" x1="1277.53" y1="340.936" x2="1279.75" y2="340.175" gradientUnits="userSpaceOnUse">
<stop stop-color="#C20094"/>
<stop offset="1" stop-color="#9C00C2"/>
</linearGradient>
<linearGradient id="paint35_linear_195_7866" x1="1286.63" y1="621.482" x2="1296.24" y2="618.183" gradientUnits="userSpaceOnUse">
<stop stop-color="#FF0063"/>
<stop offset="1" stop-color="#FF6A45"/>
</linearGradient>
<linearGradient id="paint36_linear_195_7866" x1="1321.68" y1="349.756" x2="1331.29" y2="346.458" gradientUnits="userSpaceOnUse">
<stop stop-color="#FF0063"/>
<stop offset="1" stop-color="#FF6A45"/>
</linearGradient>
<linearGradient id="paint37_linear_195_7866" x1="1250.46" y1="500.426" x2="1260.26" y2="497.065" gradientUnits="userSpaceOnUse">
<stop stop-color="#C20094"/>
<stop offset="1" stop-color="#9C00C2"/>
</linearGradient>
<linearGradient id="paint38_linear_195_7866" x1="1289.91" y1="125.34" x2="1299.7" y2="121.978" gradientUnits="userSpaceOnUse">
<stop stop-color="#C20094"/>
<stop offset="1" stop-color="#9C00C2"/>
</linearGradient>
<linearGradient id="paint39_linear_195_7866" x1="1294" y1="560.481" x2="1305.28" y2="556.612" gradientUnits="userSpaceOnUse">
<stop stop-color="#00A1FF"/>
<stop offset="1" stop-color="#27D3FF"/>
</linearGradient>
<linearGradient id="paint40_linear_195_7866" x1="1252.78" y1="413.274" x2="1257.03" y2="411.816" gradientUnits="userSpaceOnUse">
<stop stop-color="#C20094"/>
<stop offset="1" stop-color="#9C00C2"/>
</linearGradient>
<linearGradient id="paint41_linear_195_7866" x1="1190.72" y1="537.047" x2="1199.04" y2="534.192" gradientUnits="userSpaceOnUse">
<stop stop-color="#FF0063"/>
<stop offset="1" stop-color="#FF6A45"/>
</linearGradient>
<linearGradient id="paint42_linear_195_7866" x1="1165.35" y1="427.578" x2="1189.19" y2="419.396" gradientUnits="userSpaceOnUse">
<stop stop-color="#D1D100"/>
<stop offset="1" stop-color="#93D100"/>
</linearGradient>
<linearGradient id="paint43_linear_195_7866" x1="300.208" y1="75.1094" x2="324.051" y2="66.9273" gradientUnits="userSpaceOnUse">
<stop stop-color="#D1D100"/>
<stop offset="1" stop-color="#93D100"/>
</linearGradient>
<linearGradient id="paint44_linear_195_7866" x1="424.376" y1="-281.377" x2="443.886" y2="-265.619" gradientUnits="userSpaceOnUse">
<stop stop-color="#D1D100"/>
<stop offset="1" stop-color="#93D100"/>
</linearGradient>
<linearGradient id="paint45_linear_195_7866" x1="1339.51" y1="38.6935" x2="1363.36" y2="30.5114" gradientUnits="userSpaceOnUse">
<stop stop-color="#D1D100"/>
<stop offset="1" stop-color="#93D100"/>
</linearGradient>
<linearGradient id="paint46_linear_195_7866" x1="848.59" y1="9.03654" x2="872.433" y2="0.854488" gradientUnits="userSpaceOnUse">
<stop stop-color="#D1D100"/>
<stop offset="1" stop-color="#93D100"/>
</linearGradient>
<linearGradient id="paint47_linear_195_7866" x1="1374.03" y1="371.664" x2="1382.54" y2="368.746" gradientUnits="userSpaceOnUse">
<stop stop-color="#C20094"/>
<stop offset="1" stop-color="#9C00C2"/>
</linearGradient>
<linearGradient id="paint48_linear_195_7866" x1="1401.26" y1="166.258" x2="1409.76" y2="163.34" gradientUnits="userSpaceOnUse">
<stop stop-color="#C20094"/>
<stop offset="1" stop-color="#9C00C2"/>
</linearGradient>
<linearGradient id="paint49_linear_195_7866" x1="1169.49" y1="288.557" x2="1178.54" y2="285.449" gradientUnits="userSpaceOnUse">
<stop stop-color="#D1D100"/>
<stop offset="1" stop-color="#93D100"/>
</linearGradient>
<linearGradient id="paint50_linear_195_7866" x1="1127.52" y1="295.11" x2="1129.55" y2="294.413" gradientUnits="userSpaceOnUse">
<stop stop-color="#FF0063"/>
<stop offset="1" stop-color="#FF6A45"/>
</linearGradient>
<linearGradient id="paint51_linear_195_7866" x1="1127.52" y1="224.661" x2="1133.62" y2="222.568" gradientUnits="userSpaceOnUse">
<stop stop-color="#FF0063"/>
<stop offset="1" stop-color="#FF6A45"/>
</linearGradient>
<linearGradient id="paint52_linear_195_7866" x1="978.864" y1="367.611" x2="1009.73" y2="357.018" gradientUnits="userSpaceOnUse">
<stop stop-color="#FFA600"/>
<stop offset="1" stop-color="#FFD100"/>
</linearGradient>
<linearGradient id="paint53_linear_195_7866" x1="691.621" y1="58.5583" x2="722.303" y2="48.0295" gradientUnits="userSpaceOnUse">
<stop stop-color="#FFA600"/>
<stop offset="1" stop-color="#FFD100"/>
</linearGradient>
<linearGradient id="paint54_linear_195_7866" x1="797.744" y1="-193.692" x2="775.362" y2="-217.048" gradientUnits="userSpaceOnUse">
<stop stop-color="#FFA600"/>
<stop offset="1" stop-color="#FFD100"/>
</linearGradient>
<linearGradient id="paint55_linear_195_7866" x1="1049.37" y1="151.066" x2="1053.99" y2="149.481" gradientUnits="userSpaceOnUse">
<stop stop-color="#FFA600"/>
<stop offset="1" stop-color="#FFD100"/>
</linearGradient>
<linearGradient id="paint56_linear_195_7866" x1="635.337" y1="333.434" x2="648.091" y2="329.058" gradientUnits="userSpaceOnUse">
<stop stop-color="#D1D100"/>
<stop offset="1" stop-color="#93D100"/>
</linearGradient>
<linearGradient id="paint57_linear_195_7866" x1="448.001" y1="28.3238" x2="460.754" y2="23.9473" gradientUnits="userSpaceOnUse">
<stop stop-color="#D1D100"/>
<stop offset="1" stop-color="#93D100"/>
</linearGradient>
<linearGradient id="paint58_linear_195_7866" x1="256.271" y1="586.439" x2="265.328" y2="583.331" gradientUnits="userSpaceOnUse">
<stop stop-color="#00A1FF"/>
<stop offset="1" stop-color="#27D3FF"/>
</linearGradient>
<linearGradient id="paint59_linear_195_7866" x1="750.329" y1="227.862" x2="773.248" y2="219.997" gradientUnits="userSpaceOnUse">
<stop stop-color="#00A1FF"/>
<stop offset="1" stop-color="#422FD4"/>
</linearGradient>
<linearGradient id="paint60_linear_195_7866" x1="288.062" y1="-8.16958" x2="302.932" y2="11.2094" gradientUnits="userSpaceOnUse">
<stop stop-color="#00A1FF"/>
<stop offset="1" stop-color="#422FD4"/>
</linearGradient>
<linearGradient id="paint61_linear_195_7866" x1="815.181" y1="440.304" x2="818.508" y2="439.163" gradientUnits="userSpaceOnUse">
<stop stop-color="#FF0063"/>
<stop offset="1" stop-color="#FF6A45"/>
</linearGradient>
<linearGradient id="paint62_linear_195_7866" x1="1375" y1="291.383" x2="1378.51" y2="290.178" gradientUnits="userSpaceOnUse">
<stop stop-color="#FF0063"/>
<stop offset="1" stop-color="#FF6A45"/>
</linearGradient>
<linearGradient id="paint63_linear_195_7866" x1="880.13" y1="349.014" x2="885.121" y2="347.302" gradientUnits="userSpaceOnUse">
<stop stop-color="#C20094"/>
<stop offset="1" stop-color="#9C00C2"/>
</linearGradient>
<linearGradient id="paint64_linear_195_7866" x1="1385.33" y1="504.556" x2="1394.39" y2="501.448" gradientUnits="userSpaceOnUse">
<stop stop-color="#FFA600"/>
<stop offset="1" stop-color="#FFD100"/>
</linearGradient>
<linearGradient id="paint65_linear_195_7866" x1="1214.74" y1="444.506" x2="1218.44" y2="443.238" gradientUnits="userSpaceOnUse">
<stop stop-color="#FF0063"/>
<stop offset="1" stop-color="#FF6A45"/>
</linearGradient>
<linearGradient id="paint66_linear_195_7866" x1="869.766" y1="29.8581" x2="878.638" y2="26.8136" gradientUnits="userSpaceOnUse">
<stop stop-color="#FF0063"/>
<stop offset="1" stop-color="#FF6A45"/>
</linearGradient>
<linearGradient id="paint67_linear_195_7866" x1="1286.09" y1="456.795" x2="1296.81" y2="453.116" gradientUnits="userSpaceOnUse">
<stop stop-color="#D1D100"/>
<stop offset="1" stop-color="#93D100"/>
</linearGradient>
<linearGradient id="paint68_linear_195_7866" x1="636.388" y1="117.382" x2="646.924" y2="113.767" gradientUnits="userSpaceOnUse">
<stop stop-color="#D1D100"/>
<stop offset="1" stop-color="#93D100"/>
</linearGradient>
<linearGradient id="paint69_linear_195_7866" x1="815.476" y1="292.481" x2="824.348" y2="289.436" gradientUnits="userSpaceOnUse">
<stop stop-color="#C20094"/>
<stop offset="1" stop-color="#9C00C2"/>
</linearGradient>
<linearGradient id="paint70_linear_195_7866" x1="830.365" y1="192.547" x2="842.748" y2="188.298" gradientUnits="userSpaceOnUse">
<stop stop-color="#D1D100"/>
<stop offset="1" stop-color="#93D100"/>
</linearGradient>
<linearGradient id="paint71_linear_195_7866" x1="1205.51" y1="595.806" x2="1212.16" y2="593.523" gradientUnits="userSpaceOnUse">
<stop stop-color="#FF0063"/>
<stop offset="1" stop-color="#FF6A45"/>
</linearGradient>
<linearGradient id="paint72_linear_195_7866" x1="113.261" y1="571.262" x2="118.067" y2="569.613" gradientUnits="userSpaceOnUse">
<stop stop-color="#FF0063"/>
<stop offset="1" stop-color="#FF6A45"/>
</linearGradient>
<linearGradient id="paint73_linear_195_7866" x1="721.402" y1="416.291" x2="727.686" y2="414.134" gradientUnits="userSpaceOnUse">
<stop stop-color="#FFA600"/>
<stop offset="1" stop-color="#FFD100"/>
</linearGradient>
<linearGradient id="paint74_linear_195_7866" x1="1074.18" y1="412.376" x2="1103.38" y2="402.354" gradientUnits="userSpaceOnUse">
<stop stop-color="#FFA600"/>
<stop offset="1" stop-color="#FFD100"/>
</linearGradient>
<linearGradient id="paint75_linear_195_7866" x1="1333.14" y1="94.1841" x2="1362.35" y2="84.1626" gradientUnits="userSpaceOnUse">
<stop stop-color="#FFA600"/>
<stop offset="1" stop-color="#FFD100"/>
</linearGradient>
<linearGradient id="paint76_linear_195_7866" x1="140.772" y1="164.945" x2="169.791" y2="154.987" gradientUnits="userSpaceOnUse">
<stop stop-color="#FFA600"/>
<stop offset="1" stop-color="#FFD100"/>
</linearGradient>
<linearGradient id="paint77_linear_195_7866" x1="689.416" y1="375.412" x2="696.994" y2="372.812" gradientUnits="userSpaceOnUse">
<stop stop-color="#00A1FF"/>
<stop offset="1" stop-color="#422FD4"/>
</linearGradient>
<linearGradient id="paint78_linear_195_7866" x1="523.165" y1="45.7064" x2="530.743" y2="43.1059" gradientUnits="userSpaceOnUse">
<stop stop-color="#00A1FF"/>
<stop offset="1" stop-color="#422FD4"/>
</linearGradient>
<linearGradient id="paint79_linear_195_7866" x1="1076.1" y1="420.393" x2="1078.5" y2="419.568" gradientUnits="userSpaceOnUse">
<stop stop-color="#D1D100"/>
<stop offset="1" stop-color="#93D100"/>
</linearGradient>
<linearGradient id="paint80_linear_195_7866" x1="69.0703" y1="373.22" x2="84.9659" y2="367.766" gradientUnits="userSpaceOnUse">
<stop stop-color="#FF0063"/>
<stop offset="1" stop-color="#FF6A45"/>
</linearGradient>
<linearGradient id="paint81_linear_195_7866" x1="972.181" y1="452.33" x2="975.878" y2="451.061" gradientUnits="userSpaceOnUse">
<stop stop-color="#D1D100"/>
<stop offset="1" stop-color="#93D100"/>
</linearGradient>
<linearGradient id="paint82_linear_195_7866" x1="257.26" y1="439.411" x2="263.729" y2="437.191" gradientUnits="userSpaceOnUse">
<stop stop-color="#FFA600"/>
<stop offset="1" stop-color="#FFD100"/>
</linearGradient>
<linearGradient id="paint83_linear_195_7866" x1="693.227" y1="298.069" x2="701.914" y2="295.088" gradientUnits="userSpaceOnUse">
<stop stop-color="#FF0063"/>
<stop offset="1" stop-color="#FF6A45"/>
</linearGradient>
<linearGradient id="paint84_linear_195_7866" x1="725.083" y1="292.723" x2="732.106" y2="290.313" gradientUnits="userSpaceOnUse">
<stop stop-color="#00A1FF"/>
<stop offset="1" stop-color="#27D3FF"/>
</linearGradient>
<linearGradient id="paint85_linear_195_7866" x1="584.796" y1="75.3836" x2="605.497" y2="68.2798" gradientUnits="userSpaceOnUse">
<stop stop-color="#00A1FF"/>
<stop offset="1" stop-color="#422FD4"/>
</linearGradient>
<linearGradient id="paint86_linear_195_7866" x1="326.954" y1="520.867" x2="331.944" y2="519.155" gradientUnits="userSpaceOnUse">
<stop stop-color="#C20094"/>
<stop offset="1" stop-color="#9C00C2"/>
</linearGradient>
<linearGradient id="paint87_linear_195_7866" x1="569.219" y1="347.863" x2="575.873" y2="345.579" gradientUnits="userSpaceOnUse">
<stop stop-color="#00A1FF"/>
<stop offset="1" stop-color="#422FD4"/>
</linearGradient>
<linearGradient id="paint88_linear_195_7866" x1="410.175" y1="287.775" x2="421.08" y2="284.033" gradientUnits="userSpaceOnUse">
<stop stop-color="#C20094"/>
<stop offset="1" stop-color="#9C00C2"/>
</linearGradient>
<linearGradient id="paint89_linear_195_7866" x1="783.732" y1="342.017" x2="802.03" y2="335.738" gradientUnits="userSpaceOnUse">
<stop stop-color="#FF0063"/>
<stop offset="1" stop-color="#FF6A45"/>
</linearGradient>
<linearGradient id="paint90_linear_195_7866" x1="71.5822" y1="434.131" x2="77.4969" y2="432.101" gradientUnits="userSpaceOnUse">
<stop stop-color="#D1D100"/>
<stop offset="1" stop-color="#93D100"/>
</linearGradient>
<linearGradient id="paint91_linear_195_7866" x1="741" y1="115.78" x2="746.915" y2="113.75" gradientUnits="userSpaceOnUse">
<stop stop-color="#D1D100"/>
<stop offset="1" stop-color="#93D100"/>
</linearGradient>
<linearGradient id="paint92_linear_195_7866" x1="36.316" y1="415.037" x2="41.4914" y2="413.261" gradientUnits="userSpaceOnUse">
<stop stop-color="#00A1FF"/>
<stop offset="1" stop-color="#27D3FF"/>
</linearGradient>
<linearGradient id="paint93_linear_195_7866" x1="694.752" y1="197.141" x2="699.743" y2="195.428" gradientUnits="userSpaceOnUse">
<stop stop-color="#00A1FF"/>
<stop offset="1" stop-color="#27D3FF"/>
</linearGradient>
<linearGradient id="paint94_linear_195_7866" x1="598.256" y1="136.877" x2="603.431" y2="135.101" gradientUnits="userSpaceOnUse">
<stop stop-color="#00A1FF"/>
<stop offset="1" stop-color="#27D3FF"/>
</linearGradient>
<linearGradient id="paint95_linear_195_7866" x1="886.574" y1="406.303" x2="897.294" y2="402.624" gradientUnits="userSpaceOnUse">
<stop stop-color="#FF0063"/>
<stop offset="1" stop-color="#FF6A45"/>
</linearGradient>
<linearGradient id="paint96_linear_195_7866" x1="75.9349" y1="675.596" x2="79.2619" y2="674.454" gradientUnits="userSpaceOnUse">
<stop stop-color="#C20094"/>
<stop offset="1" stop-color="#9C00C2"/>
</linearGradient>
<linearGradient id="paint97_linear_195_7866" x1="74.4302" y1="575.498" x2="80.16" y2="573.531" gradientUnits="userSpaceOnUse">
<stop stop-color="#FFA600"/>
<stop offset="1" stop-color="#FFD100"/>
</linearGradient>
<linearGradient id="paint98_linear_195_7866" x1="16.522" y1="616.856" x2="19.6642" y2="615.778" gradientUnits="userSpaceOnUse">
<stop stop-color="#FF0063"/>
<stop offset="1" stop-color="#FF6A45"/>
</linearGradient>
<linearGradient id="paint99_linear_195_7866" x1="955.145" y1="46.8432" x2="959.951" y2="45.1941" gradientUnits="userSpaceOnUse">
<stop stop-color="#C20094"/>
<stop offset="1" stop-color="#9C00C2"/>
</linearGradient>
<linearGradient id="paint100_linear_195_7866" x1="1236.82" y1="307.184" x2="1242.36" y2="305.282" gradientUnits="userSpaceOnUse">
<stop stop-color="#C20094"/>
<stop offset="1" stop-color="#9C00C2"/>
</linearGradient>
<linearGradient id="paint101_linear_195_7866" x1="276.277" y1="506.235" x2="279.05" y2="505.284" gradientUnits="userSpaceOnUse">
<stop stop-color="#D1D100"/>
<stop offset="1" stop-color="#93D100"/>
</linearGradient>
<linearGradient id="paint102_linear_195_7866" x1="830.419" y1="381.771" x2="835.225" y2="380.122" gradientUnits="userSpaceOnUse">
<stop stop-color="#FFA600"/>
<stop offset="1" stop-color="#FFD100"/>
</linearGradient>
<linearGradient id="paint103_linear_195_7866" x1="1374.93" y1="585.598" x2="1378.81" y2="584.266" gradientUnits="userSpaceOnUse">
<stop stop-color="#00A1FF"/>
<stop offset="1" stop-color="#27D3FF"/>
</linearGradient>
<linearGradient id="paint104_linear_195_7866" x1="1330.8" y1="683.997" x2="1343.37" y2="679.684" gradientUnits="userSpaceOnUse">
<stop stop-color="#FF0063"/>
<stop offset="1" stop-color="#FF6A45"/>
</linearGradient>
<linearGradient id="paint105_linear_195_7866" x1="91.8688" y1="667.238" x2="97.5986" y2="665.271" gradientUnits="userSpaceOnUse">
<stop stop-color="#FFA600"/>
<stop offset="1" stop-color="#FFD100"/>
</linearGradient>
<linearGradient id="paint106_linear_195_7866" x1="31.817" y1="571.73" x2="39.7648" y2="569.003" gradientUnits="userSpaceOnUse">
<stop stop-color="#C20094"/>
<stop offset="1" stop-color="#9C00C2"/>
</linearGradient>
<linearGradient id="paint107_linear_195_7866" x1="21.0713" y1="699.375" x2="27.1708" y2="697.282" gradientUnits="userSpaceOnUse">
<stop stop-color="#D1D100"/>
<stop offset="1" stop-color="#93D100"/>
</linearGradient>
<linearGradient id="paint108_linear_195_7866" x1="446.808" y1="383.672" x2="452.353" y2="381.769" gradientUnits="userSpaceOnUse">
<stop stop-color="#00A1FF"/>
<stop offset="1" stop-color="#422FD4"/>
</linearGradient>
<linearGradient id="paint109_linear_195_7866" x1="592.619" y1="408.835" x2="597.979" y2="406.996" gradientUnits="userSpaceOnUse">
<stop stop-color="#C20094"/>
<stop offset="1" stop-color="#9C00C2"/>
</linearGradient>
<linearGradient id="paint110_linear_195_7866" x1="1344.17" y1="560.412" x2="1359.89" y2="555.02" gradientUnits="userSpaceOnUse">
<stop stop-color="#C20094"/>
<stop offset="1" stop-color="#9C00C2"/>
</linearGradient>
<linearGradient id="paint111_linear_195_7866" x1="624.721" y1="229.031" x2="640.617" y2="223.577" gradientUnits="userSpaceOnUse">
<stop stop-color="#C20094"/>
<stop offset="1" stop-color="#9C00C2"/>
</linearGradient>
<linearGradient id="paint112_linear_195_7866" x1="758.1" y1="373.324" x2="764.199" y2="371.231" gradientUnits="userSpaceOnUse">
<stop stop-color="#D1D100"/>
<stop offset="1" stop-color="#93D100"/>
</linearGradient>
<linearGradient id="paint113_linear_195_7866" x1="147.926" y1="599.442" x2="162.712" y2="594.368" gradientUnits="userSpaceOnUse">
<stop stop-color="#C20094"/>
<stop offset="1" stop-color="#9C00C2"/>
</linearGradient>
<linearGradient id="paint114_linear_195_7866" x1="202.987" y1="520.849" x2="206.314" y2="519.707" gradientUnits="userSpaceOnUse">
<stop stop-color="#C20094"/>
<stop offset="1" stop-color="#9C00C2"/>
</linearGradient>
<linearGradient id="paint115_linear_195_7866" x1="268.135" y1="397.668" x2="271.277" y2="396.59" gradientUnits="userSpaceOnUse">
<stop stop-color="#C20094"/>
<stop offset="1" stop-color="#9C00C2"/>
</linearGradient>
<linearGradient id="paint116_linear_195_7866" x1="1042.93" y1="367.106" x2="1045.89" y2="366.091" gradientUnits="userSpaceOnUse">
<stop stop-color="#FF0063"/>
<stop offset="1" stop-color="#FF6A45"/>
</linearGradient>
<linearGradient id="paint117_linear_195_7866" x1="415.842" y1="452.971" x2="424.714" y2="449.927" gradientUnits="userSpaceOnUse">
<stop stop-color="#D1D100"/>
<stop offset="1" stop-color="#93D100"/>
</linearGradient>
<linearGradient id="paint118_linear_195_7866" x1="389.968" y1="505.233" x2="394.219" y2="503.774" gradientUnits="userSpaceOnUse">
<stop stop-color="#FFA600"/>
<stop offset="1" stop-color="#FFD100"/>
</linearGradient>
<linearGradient id="paint119_linear_195_7866" x1="468.764" y1="337.498" x2="472.461" y2="336.229" gradientUnits="userSpaceOnUse">
<stop stop-color="#00A1FF"/>
<stop offset="1" stop-color="#422FD4"/>
</linearGradient>
<linearGradient id="paint120_linear_195_7866" x1="174.188" y1="359.871" x2="188.975" y2="354.797" gradientUnits="userSpaceOnUse">
<stop stop-color="#C20094"/>
<stop offset="1" stop-color="#9C00C2"/>
</linearGradient>
<linearGradient id="paint121_linear_195_7866" x1="169.011" y1="424.25" x2="175.295" y2="422.094" gradientUnits="userSpaceOnUse">
<stop stop-color="#FF0063"/>
<stop offset="1" stop-color="#FF6A45"/>
</linearGradient>
<linearGradient id="paint122_linear_195_7866" x1="459.934" y1="450.235" x2="467.328" y2="447.698" gradientUnits="userSpaceOnUse">
<stop stop-color="#C20094"/>
<stop offset="1" stop-color="#9C00C2"/>
</linearGradient>
<linearGradient id="paint123_linear_195_7866" x1="507.406" y1="396.546" x2="525.15" y2="390.457" gradientUnits="userSpaceOnUse">
<stop stop-color="#00A1FF"/>
<stop offset="1" stop-color="#422FD4"/>
</linearGradient>
<linearGradient id="paint124_linear_195_7866" x1="161.221" y1="549.644" x2="170.462" y2="546.472" gradientUnits="userSpaceOnUse">
<stop stop-color="#FFA600"/>
<stop offset="1" stop-color="#FFD100"/>
</linearGradient>
<linearGradient id="paint125_linear_195_7866" x1="464.887" y1="122.727" x2="476.162" y2="118.858" gradientUnits="userSpaceOnUse">
<stop stop-color="#C20094"/>
<stop offset="1" stop-color="#9C00C2"/>
</linearGradient>
<linearGradient id="paint126_linear_195_7866" x1="763.093" y1="47.6715" x2="793.406" y2="37.2696" gradientUnits="userSpaceOnUse">
<stop stop-color="#C20094"/>
<stop offset="1" stop-color="#9C00C2"/>
</linearGradient>
<linearGradient id="paint127_linear_195_7866" x1="1386.02" y1="653.477" x2="1400.44" y2="648.53" gradientUnits="userSpaceOnUse">
<stop stop-color="#D1D100"/>
<stop offset="1" stop-color="#93D100"/>
</linearGradient>
<linearGradient id="paint128_linear_195_7866" x1="186.797" y1="654.905" x2="190.678" y2="653.573" gradientUnits="userSpaceOnUse">
<stop stop-color="#FF0063"/>
<stop offset="1" stop-color="#FF6A45"/>
</linearGradient>
<linearGradient id="paint129_linear_195_7866" x1="66.4308" y1="516.675" x2="76.9663" y2="513.06" gradientUnits="userSpaceOnUse">
<stop stop-color="#FFA600"/>
<stop offset="1" stop-color="#FFD100"/>
</linearGradient>
<linearGradient id="paint130_linear_195_7866" x1="99.1878" y1="516.387" x2="103.624" y2="514.865" gradientUnits="userSpaceOnUse">
<stop stop-color="#D1D100"/>
<stop offset="1" stop-color="#93D100"/>
</linearGradient>
<linearGradient id="paint131_linear_195_7866" x1="44.551" y1="165.117" x2="48.987" y2="163.595" gradientUnits="userSpaceOnUse">
<stop stop-color="#D1D100"/>
<stop offset="1" stop-color="#93D100"/>
</linearGradient>
<linearGradient id="paint132_linear_195_7866" x1="29.8779" y1="469.719" x2="49.1006" y2="463.123" gradientUnits="userSpaceOnUse">
<stop stop-color="#C20094"/>
<stop offset="1" stop-color="#9C00C2"/>
</linearGradient>
<linearGradient id="paint133_linear_195_7866" x1="119.638" y1="451.937" x2="138.861" y2="445.34" gradientUnits="userSpaceOnUse">
<stop stop-color="#FF0063"/>
<stop offset="1" stop-color="#FF6A45"/>
</linearGradient>
<linearGradient id="paint134_linear_195_7866" x1="832.277" y1="115.039" x2="861.665" y2="104.954" gradientUnits="userSpaceOnUse">
<stop stop-color="#D1D100"/>
<stop offset="1" stop-color="#93D100"/>
</linearGradient>
<linearGradient id="paint135_linear_195_7866" x1="240.86" y1="548.134" x2="249.362" y2="545.216" gradientUnits="userSpaceOnUse">
<stop stop-color="#D1D100"/>
<stop offset="1" stop-color="#93D100"/>
</linearGradient>
<linearGradient id="paint136_linear_195_7866" x1="212.907" y1="490.17" x2="220.855" y2="487.442" gradientUnits="userSpaceOnUse">
<stop stop-color="#00A1FF"/>
<stop offset="1" stop-color="#422FD4"/>
</linearGradient>
<linearGradient id="paint137_linear_195_7866" x1="36.8438" y1="334.696" x2="44.6068" y2="332.032" gradientUnits="userSpaceOnUse">
<stop stop-color="#00A1FF"/>
<stop offset="1" stop-color="#422FD4"/>
</linearGradient>
<linearGradient id="paint138_linear_195_7866" x1="312.679" y1="423.289" x2="316.375" y2="422.02" gradientUnits="userSpaceOnUse">
<stop stop-color="#D1D100"/>
<stop offset="1" stop-color="#93D100"/>
</linearGradient>
<linearGradient id="paint139_linear_195_7866" x1="356.487" y1="414.87" x2="360.553" y2="413.474" gradientUnits="userSpaceOnUse">
<stop stop-color="#C20094"/>
<stop offset="1" stop-color="#9C00C2"/>
</linearGradient>
<linearGradient id="paint140_linear_195_7866" x1="355.547" y1="301.973" x2="358.874" y2="300.831" gradientUnits="userSpaceOnUse">
<stop stop-color="#D1D100"/>
<stop offset="1" stop-color="#93D100"/>
</linearGradient>
<linearGradient id="paint141_linear_195_7866" x1="1013.74" y1="504.185" x2="1019.28" y2="502.282" gradientUnits="userSpaceOnUse">
<stop stop-color="#00A1FF"/>
<stop offset="1" stop-color="#422FD4"/>
</linearGradient>
<linearGradient id="paint142_linear_195_7866" x1="926.54" y1="369.246" x2="933.194" y2="366.962" gradientUnits="userSpaceOnUse">
<stop stop-color="#FFA600"/>
<stop offset="1" stop-color="#FFD100"/>
</linearGradient>
<linearGradient id="paint143_linear_195_7866" x1="583.304" y1="290.76" x2="598.645" y2="285.496" gradientUnits="userSpaceOnUse">
<stop stop-color="#00A1FF"/>
<stop offset="1" stop-color="#422FD4"/>
</linearGradient>
<linearGradient id="paint144_linear_195_7866" x1="27.5486" y1="220.327" x2="42.705" y2="215.126" gradientUnits="userSpaceOnUse">
<stop stop-color="#00A1FF"/>
<stop offset="1" stop-color="#422FD4"/>
</linearGradient>
<linearGradient id="paint145_linear_195_7866" x1="497.251" y1="267.601" x2="531.63" y2="255.804" gradientUnits="userSpaceOnUse">
<stop stop-color="#FFA600"/>
<stop offset="1" stop-color="#FFD100"/>
</linearGradient>
<linearGradient id="paint146_linear_195_7866" x1="442.302" y1="308.564" x2="445.628" y2="307.422" gradientUnits="userSpaceOnUse">
<stop stop-color="#FF0063"/>
<stop offset="1" stop-color="#FF6A45"/>
</linearGradient>
<linearGradient id="paint147_linear_195_7866" x1="923.485" y1="164.719" x2="927.366" y2="163.387" gradientUnits="userSpaceOnUse">
<stop stop-color="#FF0063"/>
<stop offset="1" stop-color="#FF6A45"/>
</linearGradient>
<linearGradient id="paint148_linear_195_7866" x1="345.209" y1="418.741" x2="349.091" y2="417.409" gradientUnits="userSpaceOnUse">
<stop stop-color="#00A1FF"/>
<stop offset="1" stop-color="#422FD4"/>
</linearGradient>
<linearGradient id="paint149_linear_195_7866" x1="88.6856" y1="193.773" x2="92.5671" y2="192.441" gradientUnits="userSpaceOnUse">
<stop stop-color="#00A1FF"/>
<stop offset="1" stop-color="#422FD4"/>
</linearGradient>
<linearGradient id="paint150_linear_195_7866" x1="392.295" y1="97.2245" x2="398.025" y2="95.2583" gradientUnits="userSpaceOnUse">
<stop stop-color="#00A1FF"/>
<stop offset="1" stop-color="#27D3FF"/>
</linearGradient>
<linearGradient id="paint151_linear_195_7866" x1="315.758" y1="247.448" x2="323.521" y2="244.784" gradientUnits="userSpaceOnUse">
<stop stop-color="#D1D100"/>
<stop offset="1" stop-color="#93D100"/>
</linearGradient>
<linearGradient id="paint152_linear_195_7866" x1="1291.2" y1="67.0525" x2="1299.14" y2="64.3252" gradientUnits="userSpaceOnUse">
<stop stop-color="#D1D100"/>
<stop offset="1" stop-color="#93D100"/>
</linearGradient>
<linearGradient id="paint153_linear_195_7866" x1="284.19" y1="240.312" x2="290.29" y2="238.219" gradientUnits="userSpaceOnUse">
<stop stop-color="#FF0063"/>
<stop offset="1" stop-color="#FF6A45"/>
</linearGradient>
<linearGradient id="paint154_linear_195_7866" x1="219.447" y1="361.696" x2="230.167" y2="358.017" gradientUnits="userSpaceOnUse">
<stop stop-color="#FF0063"/>
<stop offset="1" stop-color="#FF6A45"/>
</linearGradient>
<linearGradient id="paint155_linear_195_7866" x1="244.987" y1="414.492" x2="253.674" y2="411.511" gradientUnits="userSpaceOnUse">
<stop stop-color="#00A1FF"/>
<stop offset="1" stop-color="#27D3FF"/>
</linearGradient>
<linearGradient id="paint156_linear_195_7866" x1="205.96" y1="305.58" x2="210.026" y2="304.185" gradientUnits="userSpaceOnUse">
<stop stop-color="#D1D100"/>
<stop offset="1" stop-color="#93D100"/>
</linearGradient>
<linearGradient id="paint157_linear_195_7866" x1="262.541" y1="267.572" x2="275.849" y2="263.005" gradientUnits="userSpaceOnUse">
<stop stop-color="#FFA600"/>
<stop offset="1" stop-color="#FFD100"/>
</linearGradient>
<linearGradient id="paint158_linear_195_7866" x1="286.593" y1="205.191" x2="291.214" y2="203.606" gradientUnits="userSpaceOnUse">
<stop stop-color="#00A1FF"/>
<stop offset="1" stop-color="#422FD4"/>
</linearGradient>
<linearGradient id="paint159_linear_195_7866" x1="275.637" y1="420.713" x2="278.224" y2="419.825" gradientUnits="userSpaceOnUse">
<stop stop-color="#C20094"/>
<stop offset="1" stop-color="#9C00C2"/>
</linearGradient>
<linearGradient id="paint160_linear_195_7866" x1="574.419" y1="89.688" x2="576.822" y2="88.8634" gradientUnits="userSpaceOnUse">
<stop stop-color="#C20094"/>
<stop offset="1" stop-color="#9C00C2"/>
</linearGradient>
<linearGradient id="paint161_linear_195_7866" x1="644.503" y1="13.368" x2="659.289" y2="8.29391" gradientUnits="userSpaceOnUse">
<stop stop-color="#FF0063"/>
<stop offset="1" stop-color="#FF6A45"/>
</linearGradient>
<linearGradient id="paint162_linear_195_7866" x1="310.18" y1="370.846" x2="325.521" y2="365.582" gradientUnits="userSpaceOnUse">
<stop stop-color="#C20094"/>
<stop offset="1" stop-color="#9C00C2"/>
</linearGradient>
<linearGradient id="paint163_linear_195_7866" x1="363.23" y1="206.984" x2="369.33" y2="204.891" gradientUnits="userSpaceOnUse">
<stop stop-color="#FFA600"/>
<stop offset="1" stop-color="#FFD100"/>
</linearGradient>
<linearGradient id="paint164_linear_195_7866" x1="91.9641" y1="622.989" x2="97.5091" y2="621.086" gradientUnits="userSpaceOnUse">
<stop stop-color="#C20094"/>
<stop offset="1" stop-color="#9C00C2"/>
</linearGradient>
<linearGradient id="paint165_linear_195_7866" x1="426.437" y1="442.928" x2="431.058" y2="441.343" gradientUnits="userSpaceOnUse">
<stop stop-color="#00A1FF"/>
<stop offset="1" stop-color="#422FD4"/>
</linearGradient>
<linearGradient id="paint166_linear_195_7866" x1="1358.8" y1="229.316" x2="1375.7" y2="181.19" gradientUnits="userSpaceOnUse">
<stop stop-color="#FF0063"/>
<stop offset="1" stop-color="#FF6A45"/>
</linearGradient>
<linearGradient id="paint167_linear_195_7866" x1="214.61" y1="171.03" x2="265.099" y2="179.524" gradientUnits="userSpaceOnUse">
<stop stop-color="#FF0063"/>
<stop offset="1" stop-color="#FF6A45"/>
</linearGradient>
<linearGradient id="paint168_linear_195_7866" x1="1350.35" y1="188.92" x2="1320.15" y2="230.261" gradientUnits="userSpaceOnUse">
<stop stop-color="#FF0063"/>
<stop offset="1" stop-color="#FF6A45"/>
</linearGradient>
<linearGradient id="paint169_linear_195_7866" x1="935.243" y1="327.208" x2="951.878" y2="321.499" gradientUnits="userSpaceOnUse">
<stop stop-color="#C20094"/>
<stop offset="1" stop-color="#9C00C2"/>
</linearGradient>
<linearGradient id="paint170_linear_195_7866" x1="783.471" y1="381.096" x2="783.819" y2="363.704" gradientUnits="userSpaceOnUse">
<stop stop-color="#C20094"/>
<stop offset="1" stop-color="#9C00C2"/>
</linearGradient>
<linearGradient id="paint171_linear_195_7866" x1="17.9255" y1="11.0407" x2="23.2856" y2="9.20132" gradientUnits="userSpaceOnUse">
<stop stop-color="#FF0063"/>
<stop offset="1" stop-color="#FF6A45"/>
</linearGradient>
<linearGradient id="paint172_linear_195_7866" x1="1005.51" y1="207.442" x2="1011.79" y2="205.285" gradientUnits="userSpaceOnUse">
<stop stop-color="#D1D100"/>
<stop offset="1" stop-color="#93D100"/>
</linearGradient>
<linearGradient id="paint173_linear_195_7866" x1="998.602" y1="413.721" x2="1005.26" y2="411.437" gradientUnits="userSpaceOnUse">
<stop stop-color="#C20094"/>
<stop offset="1" stop-color="#9C00C2"/>
</linearGradient>
<linearGradient id="paint174_linear_195_7866" x1="1024.92" y1="460.886" x2="1029.17" y2="459.427" gradientUnits="userSpaceOnUse">
<stop stop-color="#FF0063"/>
<stop offset="1" stop-color="#FF6A45"/>
</linearGradient>
<linearGradient id="paint175_linear_195_7866" x1="1091.66" y1="426.002" x2="1097.02" y2="424.163" gradientUnits="userSpaceOnUse">
<stop stop-color="#C20094"/>
<stop offset="1" stop-color="#9C00C2"/>
</linearGradient>
<linearGradient id="paint176_linear_195_7866" x1="125.432" y1="331.566" x2="136.707" y2="327.697" gradientUnits="userSpaceOnUse">
<stop stop-color="#FF0063"/>
<stop offset="1" stop-color="#FF6A45"/>
</linearGradient>
<linearGradient id="paint177_linear_195_7866" x1="1038.97" y1="58.7733" x2="1050.25" y2="54.9043" gradientUnits="userSpaceOnUse">
<stop stop-color="#FF0063"/>
<stop offset="1" stop-color="#FF6A45"/>
</linearGradient>
<linearGradient id="paint178_linear_195_7866" x1="1092.31" y1="176.828" x2="1097.3" y2="175.116" gradientUnits="userSpaceOnUse">
<stop stop-color="#FFA600"/>
<stop offset="1" stop-color="#FFD100"/>
</linearGradient>
<linearGradient id="paint179_linear_195_7866" x1="1097.28" y1="222.64" x2="1104.11" y2="220.294" gradientUnits="userSpaceOnUse">
<stop stop-color="#00A1FF"/>
<stop offset="1" stop-color="#422FD4"/>
</linearGradient>
<linearGradient id="paint180_linear_195_7866" x1="391.506" y1="26.8453" x2="398.345" y2="24.4985" gradientUnits="userSpaceOnUse">
<stop stop-color="#00A1FF"/>
<stop offset="1" stop-color="#422FD4"/>
</linearGradient>
<linearGradient id="paint181_linear_195_7866" x1="1113.83" y1="536.361" x2="1117.34" y2="535.156" gradientUnits="userSpaceOnUse">
<stop stop-color="#FFA600"/>
<stop offset="1" stop-color="#FFD100"/>
</linearGradient>
<linearGradient id="paint182_linear_195_7866" x1="1121.36" y1="486.056" x2="1123.95" y2="485.168" gradientUnits="userSpaceOnUse">
<stop stop-color="#FF0063"/>
<stop offset="1" stop-color="#FF6A45"/>
</linearGradient>
<linearGradient id="paint183_linear_195_7866" x1="1212.04" y1="249.995" x2="1227.56" y2="244.667" gradientUnits="userSpaceOnUse">
<stop stop-color="#D1D100"/>
<stop offset="1" stop-color="#93D100"/>
</linearGradient>
<linearGradient id="paint184_linear_195_7866" x1="107.181" y1="55.6128" x2="122.707" y2="50.285" gradientUnits="userSpaceOnUse">
<stop stop-color="#D1D100"/>
<stop offset="1" stop-color="#93D100"/>
</linearGradient>
<linearGradient id="paint185_linear_195_7866" x1="561.31" y1="11.1318" x2="576.836" y2="5.80399" gradientUnits="userSpaceOnUse">
<stop stop-color="#D1D100"/>
<stop offset="1" stop-color="#93D100"/>
</linearGradient>
<linearGradient id="paint186_linear_195_7866" x1="1251.44" y1="190.814" x2="1254.03" y2="189.926" gradientUnits="userSpaceOnUse">
<stop stop-color="#FFA600"/>
<stop offset="1" stop-color="#FFD100"/>
</linearGradient>
<linearGradient id="paint187_linear_195_7866" x1="1249.77" y1="275.678" x2="1261.42" y2="271.682" gradientUnits="userSpaceOnUse">
<stop stop-color="#00A1FF"/>
<stop offset="1" stop-color="#422FD4"/>
</linearGradient>
<linearGradient id="paint188_linear_195_7866" x1="1209.22" y1="350.747" x2="1222.35" y2="346.244" gradientUnits="userSpaceOnUse">
<stop stop-color="#FF0063"/>
<stop offset="1" stop-color="#FF6A45"/>
</linearGradient>
<linearGradient id="paint189_linear_195_7866" x1="794.618" y1="113.084" x2="807.741" y2="108.581" gradientUnits="userSpaceOnUse">
<stop stop-color="#FF0063"/>
<stop offset="1" stop-color="#FF6A45"/>
</linearGradient>
<linearGradient id="paint190_linear_195_7866" x1="1138.1" y1="120.004" x2="1149.74" y2="116.008" gradientUnits="userSpaceOnUse">
<stop stop-color="#FF0063"/>
<stop offset="1" stop-color="#FF6A45"/>
</linearGradient>
<linearGradient id="paint191_linear_195_7866" x1="134.176" y1="19.2886" x2="145.82" y2="15.2927" gradientUnits="userSpaceOnUse">
<stop stop-color="#FF0063"/>
<stop offset="1" stop-color="#FF6A45"/>
</linearGradient>
<linearGradient id="paint192_linear_195_7866" x1="1241.87" y1="58.773" x2="1253.51" y2="54.7771" gradientUnits="userSpaceOnUse">
<stop stop-color="#FF0063"/>
<stop offset="1" stop-color="#FF6A45"/>
</linearGradient>
<linearGradient id="paint193_linear_195_7866" x1="1188.32" y1="211.024" x2="1194.79" y2="208.804" gradientUnits="userSpaceOnUse">
<stop stop-color="#00A1FF"/>
<stop offset="1" stop-color="#27D3FF"/>
</linearGradient>
<linearGradient id="paint194_linear_195_7866" x1="1076.57" y1="472.916" x2="1089.14" y2="468.603" gradientUnits="userSpaceOnUse">
<stop stop-color="#00A1FF"/>
<stop offset="1" stop-color="#422FD4"/>
</linearGradient>
<linearGradient id="paint195_linear_195_7866" x1="1198.54" y1="78.8109" x2="1211.1" y2="74.4979" gradientUnits="userSpaceOnUse">
<stop stop-color="#00A1FF"/>
<stop offset="1" stop-color="#422FD4"/>
</linearGradient>
<linearGradient id="paint196_linear_195_7866" x1="433.102" y1="379.279" x2="439.017" y2="377.25" gradientUnits="userSpaceOnUse">
<stop stop-color="#00A1FF"/>
<stop offset="1" stop-color="#422FD4"/>
</linearGradient>
<linearGradient id="paint197_linear_195_7866" x1="936.709" y1="430.211" x2="942.808" y2="428.118" gradientUnits="userSpaceOnUse">
<stop stop-color="#FF0063"/>
<stop offset="1" stop-color="#FF6A45"/>
</linearGradient>
<linearGradient id="paint198_linear_195_7866" x1="1335.46" y1="503.695" x2="1338.97" y2="502.49" gradientUnits="userSpaceOnUse">
<stop stop-color="#FF0063"/>
<stop offset="1" stop-color="#FF6A45"/>
</linearGradient>
<linearGradient id="paint199_linear_195_7866" x1="1091.68" y1="358.642" x2="1098.52" y2="356.295" gradientUnits="userSpaceOnUse">
<stop stop-color="#FF0063"/>
<stop offset="1" stop-color="#FF6A45"/>
</linearGradient>
<linearGradient id="paint200_linear_195_7866" x1="922.312" y1="240.743" x2="926.748" y2="239.22" gradientUnits="userSpaceOnUse">
<stop stop-color="#FFA600"/>
<stop offset="1" stop-color="#FFD100"/>
</linearGradient>
<linearGradient id="paint201_linear_195_7866" x1="1171.12" y1="396.258" x2="1173.71" y2="395.37" gradientUnits="userSpaceOnUse">
<stop stop-color="#FFA600"/>
<stop offset="1" stop-color="#FFD100"/>
</linearGradient>
<linearGradient id="paint202_linear_195_7866" x1="1167.47" y1="368.788" x2="1174.68" y2="366.314" gradientUnits="userSpaceOnUse">
<stop stop-color="#C20094"/>
<stop offset="1" stop-color="#9C00C2"/>
</linearGradient>
<linearGradient id="paint203_linear_195_7866" x1="1386.15" y1="50.5805" x2="1393.36" y2="48.1069" gradientUnits="userSpaceOnUse">
<stop stop-color="#C20094"/>
<stop offset="1" stop-color="#9C00C2"/>
</linearGradient>
<linearGradient id="paint204_linear_195_7866" x1="1126.41" y1="329.788" x2="1131.03" y2="328.202" gradientUnits="userSpaceOnUse">
<stop stop-color="#D1D100"/>
<stop offset="1" stop-color="#93D100"/>
</linearGradient>
<linearGradient id="paint205_linear_195_7866" x1="1003.28" y1="150.979" x2="1007.34" y2="149.584" gradientUnits="userSpaceOnUse">
<stop stop-color="#C20094"/>
<stop offset="1" stop-color="#9C00C2"/>
</linearGradient>
<linearGradient id="paint206_linear_195_7866" x1="50.7464" y1="26.6331" x2="54.8128" y2="25.2377" gradientUnits="userSpaceOnUse">
<stop stop-color="#C20094"/>
<stop offset="1" stop-color="#9C00C2"/>
</linearGradient>
<linearGradient id="paint207_linear_195_7866" x1="596.725" y1="202.269" x2="600.606" y2="200.937" gradientUnits="userSpaceOnUse">
<stop stop-color="#C20094"/>
<stop offset="1" stop-color="#9C00C2"/>
</linearGradient>
<linearGradient id="paint208_linear_195_7866" x1="221.025" y1="225.419" x2="229.158" y2="222.629" gradientUnits="userSpaceOnUse">
<stop stop-color="#FFA600"/>
<stop offset="1" stop-color="#FFD100"/>
</linearGradient>
<linearGradient id="paint209_linear_195_7866" x1="517.689" y1="327.736" x2="525.821" y2="324.945" gradientUnits="userSpaceOnUse">
<stop stop-color="#FFA600"/>
<stop offset="1" stop-color="#FFD100"/>
</linearGradient>
<linearGradient id="paint210_linear_195_7866" x1="1087.04" y1="202.399" x2="1090.92" y2="201.067" gradientUnits="userSpaceOnUse">
<stop stop-color="#C20094"/>
<stop offset="1" stop-color="#9C00C2"/>
</linearGradient>
<linearGradient id="paint211_linear_195_7866" x1="1145" y1="281.049" x2="1162.19" y2="275.15" gradientUnits="userSpaceOnUse">
<stop stop-color="#00A1FF"/>
<stop offset="1" stop-color="#422FD4"/>
</linearGradient>
<linearGradient id="paint212_linear_195_7866" x1="980.796" y1="11.3892" x2="997.985" y2="5.49051" gradientUnits="userSpaceOnUse">
<stop stop-color="#00A1FF"/>
<stop offset="1" stop-color="#422FD4"/>
</linearGradient>
<linearGradient id="paint213_linear_195_7866" x1="953.082" y1="205.803" x2="960.29" y2="203.329" gradientUnits="userSpaceOnUse">
<stop stop-color="#D1D100"/>
<stop offset="1" stop-color="#93D100"/>
</linearGradient>
<linearGradient id="paint214_linear_195_7866" x1="797.832" y1="155.571" x2="804.855" y2="153.161" gradientUnits="userSpaceOnUse">
<stop stop-color="#D1D100"/>
<stop offset="1" stop-color="#93D100"/>
</linearGradient>
<linearGradient id="paint215_linear_195_7866" x1="187.823" y1="21.5351" x2="195.032" y2="19.0615" gradientUnits="userSpaceOnUse">
<stop stop-color="#D1D100"/>
<stop offset="1" stop-color="#93D100"/>
</linearGradient>
<linearGradient id="paint216_linear_195_7866" x1="1130.29" y1="328.453" x2="1135.47" y2="326.677" gradientUnits="userSpaceOnUse">
<stop stop-color="#FF0063"/>
<stop offset="1" stop-color="#FF6A45"/>
</linearGradient>
<linearGradient id="paint217_linear_195_7866" x1="979.382" y1="279.421" x2="988.993" y2="276.123" gradientUnits="userSpaceOnUse">
<stop stop-color="#C20094"/>
<stop offset="1" stop-color="#9C00C2"/>
</linearGradient>
<linearGradient id="paint218_linear_195_7866" x1="1360.71" y1="276.244" x2="1365.33" y2="274.658" gradientUnits="userSpaceOnUse">
<stop stop-color="#00A1FF"/>
<stop offset="1" stop-color="#422FD4"/>
</linearGradient>
<linearGradient id="paint219_linear_195_7866" x1="909.192" y1="92.3575" x2="913.628" y2="90.8352" gradientUnits="userSpaceOnUse">
<stop stop-color="#00A1FF"/>
<stop offset="1" stop-color="#422FD4"/>
</linearGradient>
<linearGradient id="paint220_linear_195_7866" x1="985.791" y1="222.262" x2="1002.61" y2="216.491" gradientUnits="userSpaceOnUse">
<stop stop-color="#00A1FF"/>
<stop offset="1" stop-color="#27D3FF"/>
</linearGradient>
<linearGradient id="paint221_linear_195_7866" x1="1011.26" y1="61.6731" x2="1022.16" y2="57.931" gradientUnits="userSpaceOnUse">
<stop stop-color="#D1D100"/>
<stop offset="1" stop-color="#93D100"/>
</linearGradient>
<clipPath id="clip0_195_7866">
<rect width="1440" height="728.891" fill="white" transform="translate(0 -37.5479)"/>
</clipPath>
</defs>
</svg>
